<?xml version="1.0" encoding="utf-8"?>
<!-- Generator: Adobe Illustrator 24.0.0, SVG Export Plug-In . SVG Version: 6.00 Build 0)  -->
<svg version="1.1" xmlns="http://www.w3.org/2000/svg" xmlns:xlink="http://www.w3.org/1999/xlink" x="0px" y="0px"
	 viewBox="0 0 489.22 177.68" style="enable-background:new 0 0 489.22 177.68;" xml:space="preserve">
<style type="text/css">
	.st0{opacity:0.49;}
	.st1{fill:none;stroke:#29ABE2;stroke-miterlimit:10;}
	.st2{fill:none;stroke:#29ABE2;stroke-miterlimit:10;stroke-dasharray:4.0173,4.0173;}
	.st3{opacity:0.49;fill:none;stroke:#29ABE2;stroke-miterlimit:10;enable-background:new    ;}
	.st4{fill:#CCCCCC;}
	.st5{clip-path:url(#SVGID_2_);fill:none;stroke:#148F77;stroke-width:30;stroke-miterlimit:10;}
	.st6{clip-path:url(#SVGID_4_);fill:none;stroke:#148F77;stroke-width:25;stroke-miterlimit:10;}
	.st7{clip-path:url(#SVGID_6_);fill:none;stroke:#148F77;stroke-width:25;stroke-miterlimit:10;}
	.st8{clip-path:url(#SVGID_8_);fill:none;stroke:#148F77;stroke-width:25;stroke-miterlimit:10;}
	.st9{clip-path:url(#SVGID_10_);fill:none;stroke:#148F77;stroke-width:25;stroke-miterlimit:10;}
	.st10{clip-path:url(#SVGID_12_);fill:none;stroke:#148F77;stroke-width:25;stroke-miterlimit:10;}
	.st11{clip-path:url(#SVGID_14_);fill:none;stroke:#148F77;stroke-width:25;stroke-miterlimit:10;}
	.st12{clip-path:url(#SVGID_16_);fill:none;stroke:#148F77;stroke-width:25;stroke-miterlimit:10;}
	.st13{clip-path:url(#SVGID_18_);fill:none;stroke:#148F77;stroke-width:25;stroke-miterlimit:10;}
	.st14{clip-path:url(#SVGID_20_);fill:none;stroke:#148F77;stroke-width:25;stroke-miterlimit:10;}
	.st15{clip-path:url(#SVGID_22_);fill:none;stroke:#148F77;stroke-width:25;stroke-miterlimit:10;}
	.st16{clip-path:url(#SVGID_24_);fill:none;stroke:#148F77;stroke-width:21;stroke-miterlimit:10;}
	.st17{clip-path:url(#SVGID_26_);fill:none;stroke:#148F77;stroke-width:29;stroke-miterlimit:10;}
</style>
<g id="Layer_1">
	<g class="st0">
		<g>
			<line class="st1" x1="-0.44" y1="60.01" x2="1.56" y2="60.01"/>
			<line class="st2" x1="5.58" y1="60.01" x2="485.65" y2="60.01"/>
			<line class="st1" x1="487.66" y1="60.01" x2="489.66" y2="60.01"/>
		</g>
		<line class="st3" x1="0.12" y1="140.21" x2="490.23" y2="140.21"/>
		<line class="st3" x1="-0.44" y1="4.12" x2="489.66" y2="4.12"/>
	</g>
	<path class="st4" d="M84.34,118.48c-4,3.4-8.27,6.85-12.81,10.34c-4.55,3.5-8.99,6.7-13.34,9.59c-4.35,2.9-8.39,5.27-12.14,7.12
		c-3.75,1.85-6.82,2.82-9.22,2.92c-1.1,0-2.67-0.15-4.72-0.45c-2.05-0.3-4.32-0.85-6.82-1.65c-2.5-0.8-5.07-1.87-7.72-3.22
		c-2.65-1.35-5.15-3.07-7.49-5.17c-2.35-2.1-4.37-4.59-6.07-7.49c-1.7-2.9-2.85-6.3-3.45-10.19c-1-6.39-0.65-12.96,1.05-19.71
		c1.7-6.74,4.35-13.44,7.94-20.08c3.6-6.64,7.99-13.14,13.19-19.48c5.19-6.34,10.84-12.34,16.94-17.98
		c6.09-5.64,12.46-10.87,19.11-15.66c6.64-4.8,13.24-8.89,19.78-12.29c6.54-3.4,12.86-6.07,18.96-8.02
		c6.09-1.95,11.59-2.92,16.49-2.92c6.09,0,11.26,1,15.51,3c4.25,2,7.67,4.3,10.27,6.89c2.6,2.6,4.5,5.15,5.7,7.64
		c1.2,2.5,1.8,4.3,1.8,5.4c-0.3,4.8-1.25,9.14-2.85,13.04c-1.6,3.9-3.55,7.37-5.85,10.42c-2.3,3.05-4.75,5.75-7.34,8.09
		c-2.6,2.35-5,4.42-7.19,6.22c-0.8,0.7-1.55,1.3-2.25,1.8c-0.7,0.5-1.3,1-1.8,1.5c-2.3,2-4.52,2.7-6.67,2.1
		c-2.15-0.6-4.05-1.72-5.7-3.37c-1.65-1.65-2.92-3.47-3.82-5.47c-0.9-2-1.25-3.35-1.05-4.05c0.2-0.5,0.55-0.97,1.05-1.42
		c0.5-0.45,1.05-0.82,1.65-1.12c1-0.4,2.2-1,3.6-1.8c1.4-0.8,3.02-2.25,4.87-4.35c1.85-2.1,3.95-5.1,6.29-8.99
		c2.35-3.9,4.97-9.24,7.87-16.04l0.3,0.15l0.45-1.8c-0.2,0.4-0.8,0.7-1.8,0.9c-1.7,0.3-4.45,1.22-8.24,2.77
		c-3.8,1.55-8.24,3.62-13.34,6.22c-5.1,2.6-10.64,5.7-16.64,9.29c-6,3.6-12.04,7.69-18.14,12.29c-6.1,4.6-12.02,9.62-17.76,15.06
		c-5.75,5.45-10.87,11.29-15.36,17.54c-4.5,6.25-8.22,12.87-11.17,19.86c-2.95,6.99-4.67,14.34-5.17,22.03
		c-0.1,1,0.15,2.15,0.75,3.45c0.6,1.3,1.25,2,1.95,2.1c4-0.4,8.52-1.67,13.56-3.82c5.04-2.15,10.14-4.72,15.29-7.72
		c5.15-3,10.17-6.17,15.06-9.52c4.89-3.35,9.24-6.47,13.04-9.37l-8.69,2.55c-1.4,0.4-2.62,0.78-3.67,1.12
		c-1.05,0.35-1.97,0.63-2.77,0.82c-1.3,0.3-2.85-0.15-4.65-1.35c-1.8-1.2-3.37-2.7-4.72-4.5c-1.35-1.8-2.27-3.7-2.77-5.7
		c-0.5-2-0.1-3.7,1.2-5.1h-0.15c2-2,5.17-3.87,9.52-5.62c4.35-1.75,9.29-3.25,14.84-4.5c5.55-1.25,11.44-2.25,17.69-3
		c6.24-0.75,12.31-1.12,18.21-1.12c6.49,0,12.46,0.52,17.91,1.57c5.44,1.05,9.77,2.77,12.96,5.17c2.6,2,3.97,3.82,4.12,5.47
		c0.15,1.65-0.33,3.05-1.42,4.2c-1.1,1.15-2.47,1.97-4.12,2.47c-1.65,0.5-2.97,0.65-3.97,0.45c-3.7-0.8-7.79-1.2-12.29-1.2
		c-0.8,0-1.57,0.03-2.32,0.08c-0.75,0.05-1.52,0.07-2.32,0.07c-4.7,7.4-8.72,14.31-12.07,20.76c-3.35,6.44-6.17,12.29-8.47,17.54
		c-2.3,5.25-4.15,9.87-5.55,13.86c-1.4,4-2.5,7.34-3.3,10.04c-0.8,2.8-1.72,5-2.77,6.59c-1.05,1.6-2.27,2.4-3.67,2.4
		c-0.9-0.2-1.93-0.63-3.07-1.27c-1.15-0.65-2.27-1.55-3.37-2.7c-1.1-1.15-2.12-2.52-3.07-4.12c-0.95-1.6-1.72-3.4-2.32-5.4
		c-0.5-1.9-0.78-4-0.82-6.3c-0.05-2.3,0.17-4.75,0.67-7.34L84.34,118.48z"/>
	<path class="st4" d="M204.69,126.57c-0.5-1.4-0.8-2.87-0.9-4.42c-0.1-1.55-0.05-3.07,0.15-4.57c-3.7,1.5-7.17,2.55-10.42,3.15
		c-3.25,0.6-6.07,1-8.47,1.2c-2.7,3-5.45,5.77-8.24,8.32c-2.8,2.55-5.47,4.72-8.02,6.52c-2.55,1.8-4.9,3.17-7.04,4.12
		c-2.15,0.95-3.92,1.32-5.32,1.12c-3.3-0.3-6.25-1.03-8.84-2.17c-2.6-1.15-4.85-2.5-6.74-4.05c-1.9-1.55-3.45-3.25-4.65-5.1
		c-1.2-1.85-2.05-3.67-2.55-5.47c-1.1-3.7-1.3-7.52-0.6-11.47c0.7-3.95,1.9-7.79,3.6-11.54c1.7-3.75,3.72-7.29,6.07-10.64
		c2.35-3.35,4.62-6.34,6.82-8.99c2.2-2.65,4.2-4.82,6-6.52c1.8-1.7,3-2.75,3.6-3.15c-0.2,0.7,0.25,1.8,1.35,3.3
		c3-4.29,6.37-8.02,10.12-11.17c3.75-3.15,7.72-4.67,11.92-4.57c3.3,0.2,6.37,0.97,9.22,2.32c2.85,1.35,5.32,2.97,7.42,4.87
		c2.1,1.9,3.75,3.9,4.95,6c1.2,2.1,1.9,3.95,2.1,5.55c0.1,4.1-0.63,8.29-2.17,12.59c-1.55,4.3-3.62,8.64-6.22,13.04
		c2.1-0.9,4.35-2.07,6.74-3.52c2.4-1.45,4.89-3.32,7.49-5.62c1.8-3,3.75-5.79,5.84-8.39c2.1-2.6,4.07-4.89,5.92-6.89
		c1.85-2,3.47-3.65,4.87-4.95c1.4-1.3,2.35-2.15,2.85-2.55c1.6-2.2,3.32-4.22,5.17-6.07c1.85-1.85,3.82-3.45,5.92-4.8
		c2.1-1.35,4.29-2.32,6.59-2.92c2.3-0.6,4.7-0.75,7.19-0.45h-0.15c3.3,0.4,6.34,1.3,9.14,2.7c2.8,1.4,5.22,3,7.27,4.8
		c2.05,1.8,3.67,3.7,4.87,5.7c1.2,2,1.9,3.8,2.1,5.4c0,4-0.82,8.27-2.47,12.81c-1.65,4.55-3.87,9.07-6.67,13.56
		c-0.2,1.5-0.8,2.4-1.8,2.7c0,0.1-0.05,0.15-0.15,0.15c1.1-0.1,2.27-0.47,3.52-1.12c1.25-0.65,2.52-1.45,3.82-2.4
		c1.3-0.95,2.55-2,3.75-3.15c1.2-1.15,2.3-2.22,3.3-3.22c2-2.1,3.75-3.9,5.25-5.4c1.5-1.5,2.6-2.35,3.3-2.55
		c2.7-0.6,4.8-0.08,6.3,1.57c1.5,1.65,2.45,3.92,2.85,6.82c0,0.5-0.5,1.5-1.5,3c-1,1.5-2.35,3.25-4.05,5.25
		c-1.4,1.6-3.1,3.27-5.1,5.02c-2,1.75-4.15,3.37-6.45,4.87c-2.3,1.5-4.7,2.72-7.19,3.67c-2.5,0.95-4.95,1.42-7.34,1.42
		c-0.7,0-1.9-0.12-3.6-0.37c-1.7-0.25-3.55-0.77-5.55-1.57c-2.9,3.5-5.9,6.77-8.99,9.82c-3.1,3.05-6.1,5.7-8.99,7.94
		c-2.9,2.25-5.6,4-8.09,5.25c-2.5,1.25-4.55,1.87-6.14,1.87c-3-0.4-5.77-1.2-8.32-2.4c-2.55-1.2-4.82-2.57-6.82-4.12
		c-2-1.55-3.67-3.2-5.02-4.95C206.11,130,205.18,128.27,204.69,126.57z M151.03,129.72c1.2,0.9,3.2,0.22,6-2.02
		c2.8-2.25,5.94-5.32,9.44-9.22c-4.4-2.2-8.14-4.7-11.24-7.49c-1.9,3.2-3.32,6.32-4.27,9.37c-0.95,3.05-1.07,5.67-0.37,7.87
		C150.58,128.92,150.73,129.42,151.03,129.72z M166.62,107.39c0.2,0.2,1.07,0.35,2.62,0.45c1.55,0.1,3.32,0.2,5.32,0.3
		c2.4-3.3,4.67-6.67,6.82-10.12c2.15-3.45,3.95-6.64,5.4-9.59c1.45-2.95,2.47-5.57,3.07-7.87c0.6-2.3,0.55-4-0.15-5.1
		c-0.7-0.4-1.75-0.4-3.15,0c-1.4,0.4-2.95,1.12-4.65,2.17c-1.7,1.05-3.45,2.4-5.25,4.05c-1.8,1.65-3.5,3.42-5.1,5.32
		c0.8,0.5,1.55,0.9,2.25,1.2c0.7,0.3,1.25,0.35,1.65,0.15h0.15c-1.4,0.8-2.92,1.9-4.57,3.3c-1.65,1.4-3.37,3.05-5.17,4.95
		c-0.6,1.9-0.9,3.75-0.9,5.55C164.97,103.94,165.52,105.69,166.62,107.39z M222.52,130.92c0.9,0.6,2.27,0.3,4.12-0.9
		c1.85-1.2,3.97-3,6.37-5.4c2.4-2.4,4.95-5.27,7.64-8.62c2.7-3.35,5.34-6.82,7.94-10.42c-0.7-2.9-1.15-5.85-1.35-8.84
		c-0.2-3-0.2-5.64,0-7.94c-1.7,1-3.57,2.45-5.62,4.35c-2.05,1.9-4.1,4.07-6.15,6.52c-2.05,2.45-4,5.02-5.84,7.72
		c-1.85,2.7-3.45,5.4-4.8,8.09c-1.35,2.7-2.32,5.27-2.92,7.72c-0.6,2.45-0.65,4.57-0.15,6.37L222.52,130.92z M263.14,73.67
		c-0.6-0.5-1.52-0.6-2.77-0.3c-1.25,0.3-2.7,0.92-4.35,1.87c-1.65,0.95-3.45,2.15-5.4,3.6c-1.95,1.45-3.92,3.12-5.92,5.02
		c1.2,1.3,2.05,2.4,2.55,3.3c0.2-2,0.45-3.45,0.75-4.35c0.5-1.6,1.47-2.77,2.92-3.52c1.45-0.75,3.12-1.12,5.02-1.12
		c2.2,0,4.5,0.55,6.89,1.65C263.84,76.91,263.94,74.87,263.14,73.67z"/>
	<path class="st4" d="M312.3,175.28c-1.4,1-2.82,1.65-4.27,1.95c-1.45,0.3-2.87,0.45-4.27,0.45c-2.8-0.3-5.35-1.03-7.64-2.17
		c-2.3-1.15-4.25-2.6-5.85-4.35c-1.6-1.75-2.8-3.65-3.6-5.7c-0.8-2.05-1.1-4.12-0.9-6.22c0.6-3.5,2.72-6.35,6.37-8.54
		c3.65-2.2,8.27-4.4,13.86-6.59l7.19-2.85c1.2-2.1,2.42-4.32,3.67-6.67c1.25-2.35,2.47-4.67,3.67-6.97
		c-4.7,3.8-9.14,7.07-13.34,9.82c-4.2,2.75-7.6,4.37-10.19,4.87c-1.3,0-2.72-0.18-4.27-0.52c-1.55-0.35-3.15-1.03-4.8-2.02
		c-1.65-1-3.32-2.45-5.02-4.35c-1.7-1.9-3.3-4.4-4.8-7.49c-1.4-3-1.75-6.69-1.05-11.09c0.7-4.4,2.2-8.99,4.5-13.79
		c2.3-4.8,5.25-9.62,8.84-14.46c3.6-4.85,7.62-9.24,12.07-13.19c4.44-3.95,9.19-7.22,14.24-9.82c5.04-2.6,10.17-4.1,15.36-4.5
		c2.5-0.2,5.27,0.07,8.32,0.82c3.05,0.75,5.97,1.9,8.77,3.45c2.8,1.55,5.29,3.47,7.49,5.77c2.2,2.3,3.75,4.85,4.65,7.64
		c0.2,0.7-0.05,1.2-0.75,1.5l1.65,0.45c0.5,0.3,1.07,0.85,1.72,1.65c0.65,0.8,1.17,1.67,1.57,2.62c0.4,0.95,0.55,2,0.45,3.15
		c-0.1,1.15-0.6,2.27-1.5,3.37l0.3-0.15c-0.3,0.5-0.75,1.35-1.35,2.55c-0.6,1.2-1.4,2.8-2.4,4.8l-8.24,16.64
		c3-2.6,5.89-5.22,8.69-7.87c2.8-2.65,5.42-5.15,7.87-7.49c2.45-2.35,4.62-4.5,6.52-6.45c1.9-1.95,3.45-3.52,4.65-4.72
		c2.9-0.8,5.15-0.3,6.74,1.5c1.6,1.8,2.65,4.3,3.15,7.49c-2.3,3-5.5,6.57-9.59,10.72c-4.1,4.15-8.64,8.42-13.64,12.81
		c-5,4.4-10.19,8.67-15.59,12.81c-5.4,4.15-10.49,7.77-15.29,10.87c-2,3.3-4.02,6.49-6.07,9.59c-2.05,3.1-4.1,5.97-6.15,8.62
		c-2.05,2.65-4.07,5.02-6.07,7.12c-2,2.1-3.95,3.8-5.84,5.1L312.3,175.28z M340.92,87.31c1.3-2,2.5-3.67,3.6-5.02
		c1.1-1.35,2.1-2.27,3-2.77c-0.2-0.4-0.3-0.65-0.3-0.75c-0.1-0.3-0.35-0.6-0.75-0.9c-0.4-0.3-0.85-0.4-1.35-0.3
		c-4.1,0.3-8.39,1.65-12.89,4.05c-4.5,2.4-8.84,5.37-13.04,8.92c-4.2,3.55-8.12,7.4-11.77,11.54c-3.65,4.15-6.67,8.07-9.07,11.77
		c-2.4,3.7-4.05,6.92-4.95,9.67c-0.9,2.75-0.7,4.47,0.6,5.17c1.3,0.3,3.22-0.35,5.77-1.95c2.55-1.6,5.42-3.7,8.62-6.3
		c3.2-2.6,6.52-5.52,9.97-8.77c3.45-3.25,6.64-6.39,9.59-9.44c2.95-3.05,5.52-5.82,7.72-8.32c2.2-2.5,3.65-4.35,4.35-5.55
		L340.92,87.31z"/>
	<path class="st4" d="M421.41,32.45c2.4,0.6,4.59,1.63,6.59,3.07c2,1.45,3.67,3.02,5.02,4.72c1.35,1.7,2.27,3.3,2.77,4.8
		c0.5,1.5,0.4,2.55-0.3,3.15c-4.2,3.2-8.67,7.32-13.41,12.37c-4.75,5.05-9.42,10.47-14.01,16.26c-4.6,5.8-8.99,11.67-13.19,17.61
		c-4.2,5.95-7.87,11.32-11.02,16.11s-5.65,8.77-7.49,11.91c-1.85,3.15-2.67,4.87-2.47,5.17c1.8-0.1,4.1-1.05,6.89-2.85
		c2.8-1.8,5.77-4.05,8.92-6.74c3.15-2.7,6.34-5.62,9.59-8.77c3.25-3.15,6.24-6.12,8.99-8.92c2.75-2.8,5.02-5.19,6.82-7.19
		c1.8-2,2.9-3.2,3.3-3.6c1-1.1,2.02-1.65,3.07-1.65c1.05,0,2.07,0.37,3.07,1.12c1,0.75,1.87,1.8,2.62,3.15
		c0.75,1.35,1.27,2.82,1.57,4.42c-0.1,0.6-1.15,2.07-3.15,4.42c-2,2.35-4.55,5.15-7.64,8.39c-3.1,3.25-6.52,6.65-10.27,10.19
		c-3.75,3.55-7.44,6.85-11.09,9.89c-3.65,3.05-7.04,5.57-10.19,7.57c-3.15,2-5.57,3.05-7.27,3.15c-0.2,0-0.4-0.03-0.6-0.07
		c-0.2-0.05-0.4-0.08-0.6-0.08c-1,0-2.12-0.1-3.37-0.3c-1.25-0.2-2.55-0.65-3.9-1.35c-1.35-0.7-2.7-1.75-4.05-3.15
		c-1.35-1.4-2.67-3.35-3.97-5.84c-0.4-1.3,0.05-3.72,1.35-7.27c1.3-3.55,3.17-7.74,5.62-12.59c2.45-4.85,5.29-10.17,8.54-15.96
		c3.25-5.79,6.64-11.59,10.19-17.39c3.55-5.79,7.12-11.36,10.72-16.71c3.6-5.34,6.89-10.07,9.89-14.16c3-4.1,5.62-7.32,7.87-9.67
		C419.08,33.33,420.61,32.25,421.41,32.45z"/>
	<path class="st4" d="M454.53,60.03c1-0.1,2.45,0.2,4.35,0.9c1.9,0.7,3.85,1.72,5.84,3.07c2,1.35,3.95,3,5.84,4.95
		c1.9,1.95,3.35,4.17,4.35,6.67c0.7,1.8,0.57,3.87-0.38,6.22c-0.95,2.35-2.37,4.72-4.27,7.12c-1.9,2.4-4.07,4.77-6.52,7.12
		c-2.45,2.35-4.85,4.45-7.19,6.29c-2.35,1.85-4.52,3.35-6.52,4.5c-2,1.15-3.45,1.72-4.35,1.72c-1.5,0.2-3.15-0.02-4.95-0.67
		c-1.8-0.65-3.55-1.37-5.25-2.17c-1.4,2.5-2.65,4.95-3.75,7.34c-1.1,2.4-2.02,4.67-2.77,6.82c-0.75,2.15-1.3,4.15-1.65,5.99
		c-0.35,1.85-0.43,3.42-0.22,4.72c1.9-0.2,4.44-1.32,7.64-3.37c3.2-2.05,6.67-4.55,10.42-7.49c3.75-2.95,7.54-6.09,11.39-9.44
		c3.85-3.35,7.37-6.49,10.57-9.44c3.2-2.95,5.87-5.44,8.02-7.49c2.15-2.05,3.37-3.22,3.67-3.52c1-0.9,2.15-1.25,3.45-1.05
		c1.3,0.2,2.5,0.75,3.6,1.65c1.1,0.9,1.97,2.05,2.62,3.45c0.65,1.4,0.87,2.85,0.67,4.35c0,0.3-0.67,1.18-2.02,2.62
		c-1.35,1.45-3.12,3.25-5.32,5.4c-2.2,2.15-4.75,4.55-7.64,7.19c-2.9,2.65-5.92,5.32-9.07,8.02c-3.15,2.7-6.3,5.32-9.44,7.87
		c-3.15,2.55-6.14,4.8-8.99,6.74c-2.85,1.95-5.4,3.5-7.64,4.65c-2.25,1.15-4.02,1.72-5.32,1.72c-1.3,0-3.07-0.18-5.32-0.52
		c-2.25-0.35-4.6-0.95-7.04-1.8c-2.45-0.85-4.82-2.07-7.12-3.67c-2.3-1.6-4.2-3.7-5.7-6.3c-1-1.9-1.8-3.8-2.4-5.7
		c-1.1-4.2-1.17-8.64-0.22-13.34c0.95-4.7,2.62-9.37,5.02-14.01c2.4-4.65,5.32-9.12,8.77-13.41c3.45-4.29,7.17-8.14,11.17-11.54
		c4-3.4,8.04-6.17,12.14-8.32C447.08,61.7,450.93,60.43,454.53,60.03z M459.62,78.91c-3,1.5-6.05,3.8-9.14,6.89
		c-3.1,3.1-5.99,6.55-8.69,10.34c1.3-0.2,2.8-0.9,4.5-2.1c1.7-1.2,3.4-2.67,5.1-4.42c1.7-1.75,3.27-3.57,4.72-5.47
		C457.55,82.26,458.73,80.51,459.62,78.91z"/>
</g>
<g id="Layer_2">
	<g id="G">
		<g id="G_top">
			<defs>
				<path id="SVGID_1_" d="M114.71,76.66c6.49,0,12.46,0.52,17.91,1.57l-48.49,40.24c-4,3.4-8.27,6.85-12.81,10.34
					c-4.55,3.5-8.99,6.7-13.34,9.59c-4.35,2.9-8.39,5.27-12.14,7.12c-3.75,1.85-6.82,2.82-9.22,2.92c-1.1,0-2.67-0.15-4.72-0.45
					c-2.05-0.3-4.32-0.85-6.82-1.65c-2.5-0.8-5.07-1.87-7.72-3.22c-2.65-1.35-5.15-3.07-7.49-5.17c-2.35-2.1-4.37-4.59-6.07-7.49
					c-1.7-2.9-2.85-6.3-3.45-10.19c-1-6.39-0.65-12.96,1.05-19.71c1.7-6.74,4.35-13.44,7.94-20.08c3.6-6.64,7.99-13.14,13.19-19.48
					c5.19-6.34,10.84-12.34,16.94-17.98c6.09-5.64,12.46-10.87,19.11-15.66c6.64-4.8,13.24-8.89,19.78-12.29
					c6.54-3.4,12.86-6.07,18.96-8.02c6.09-1.95,11.59-2.92,16.49-2.92c6.09,0,11.26,1,15.51,3c4.25,2,7.67,4.3,10.27,6.89
					c2.6,2.6,4.5,5.15,5.7,7.64c1.2,2.5,1.8,4.3,1.8,5.4c-0.3,4.8-1.25,9.14-2.85,13.04c-1.6,3.9-3.55,7.37-5.85,10.42
					c-2.3,3.05-4.75,5.75-7.34,8.09c-2.6,2.35-5,4.42-7.19,6.22c-0.8,0.7-1.55,1.3-2.25,1.8c-0.7,0.5-1.3,1-1.8,1.5
					c-2.3,2-4.52,2.7-6.67,2.1c-2.15-0.6-4.05-1.72-5.7-3.37c-1.65-1.65-2.92-3.47-3.82-5.47c-0.9-2-1.25-3.35-1.05-4.05
					c0.2-0.5,0.55-0.97,1.05-1.42c0.5-0.45,1.05-0.82,1.65-1.12c1-0.4,2.2-1,3.6-1.8c1.4-0.8,3.02-2.25,4.87-4.35
					c1.85-2.1,3.95-5.1,6.29-8.99c2.35-3.9,4.97-9.24,7.87-16.04l0.3,0.15l0.45-1.8c-0.2,0.4-0.8,0.7-1.8,0.9
					c-1.7,0.3-4.45,1.22-8.24,2.77c-3.8,1.55-8.24,3.62-13.34,6.22c-5.1,2.6-10.64,5.7-16.64,9.29c-6,3.6-12.04,7.69-18.14,12.29
					c-6.1,4.6-12.02,9.62-17.76,15.06c-5.75,5.45-10.87,11.29-15.36,17.54c-4.5,6.25-8.22,12.87-11.17,19.86
					c-2.95,6.99-4.67,14.34-5.17,22.03c-0.1,1,0.15,2.15,0.75,3.45c0.6,1.3,1.25,2,1.95,2.1c4-0.4,8.52-1.67,13.56-3.82
					c5.04-2.15,10.14-4.72,15.29-7.72c5.15-3,10.17-6.17,15.06-9.52c4.89-3.35,9.24-6.47,13.04-9.37L114.71,76.66z"/>
			</defs>
			<clipPath id="SVGID_2_">
				<use xlink:href="#SVGID_1_"  style="overflow:visible;"/>
			</clipPath>
			<path class="st5" d="M103.62,61.38c0,0,39.49-24.82,35.05-34.02s-7.61-13-13.32-15.86s-65.66,25.06-92.3,56.46
				s-20.18,65.02-20.18,65.02s16.67,10.71,29.38,6.03c12.05-4.44,75.78-45.86,90.37-60.77"/>
		</g>
		<g id="G_bottom">
			<defs>
				<path id="SVGID_3_" d="M123.46,94.57c-4.7,7.4-8.72,14.31-12.07,20.76c-3.35,6.44-6.17,12.29-8.47,17.54
					c-2.3,5.25-4.15,9.87-5.55,13.86c-1.4,3.99-2.5,7.34-3.3,10.04c-0.8,2.8-1.72,5-2.77,6.59c-1.05,1.6-2.27,2.4-3.67,2.4
					c-0.9-0.2-1.93-0.63-3.07-1.27c-1.15-0.65-2.27-1.55-3.37-2.7c-1.1-1.15-2.12-2.52-3.07-4.12c-0.95-1.6-1.72-3.4-2.32-5.4
					c-0.5-1.9-0.78-4-0.82-6.3c-0.05-2.3,0.17-4.75,0.67-7.34l8.69-20.53l30.57-41.82c6.49,0,12.46,0.52,17.91,1.57L123.46,94.57z"
					/>
			</defs>
			<clipPath id="SVGID_4_">
				<use xlink:href="#SVGID_3_"  style="overflow:visible;"/>
			</clipPath>
			<path class="st6" d="M129.04,71.09c0,0-32.7,44.71-38.92,60.58c-6.22,15.87-8.58,24.25-11.2,36.16"/>
		</g>
		<g id="G_cross">
			<defs>
				<path id="SVGID_5_" d="M80.89,102.67l-8.69,2.55c-1.4,0.4-2.62,0.78-3.67,1.12c-1.05,0.35-1.97,0.63-2.77,0.82
					c-1.3,0.3-2.85-0.15-4.65-1.35c-1.8-1.2-3.37-2.7-4.72-4.5c-1.35-1.8-2.27-3.7-2.77-5.7c-0.5-2-0.1-3.7,1.2-5.1h-0.15
					c2-2,5.17-3.87,9.52-5.62c4.35-1.75,9.29-3.25,14.84-4.5c5.55-1.25,11.44-2.25,17.69-3c6.24-0.75,12.31-1.12,18.21-1.12
					c6.49,0,12.46,0.52,17.91,1.57c5.44,1.05,9.77,2.77,12.96,5.17c2.6,2,3.97,3.82,4.12,5.47c0.15,1.65-0.33,3.05-1.42,4.2
					c-1.1,1.15-2.47,1.97-4.12,2.47c-1.65,0.5-2.97,0.65-3.97,0.45c-3.7-0.8-7.79-1.2-12.29-1.2c-0.8,0-1.57,0.03-2.32,0.08
					c-0.75,0.05-1.52,0.07-2.32,0.07L80.89,102.67z"/>
			</defs>
			<clipPath id="SVGID_6_">
				<use xlink:href="#SVGID_5_"  style="overflow:visible;"/>
			</clipPath>
			<path class="st7" d="M49.74,100.21c0,0,42.18-12.37,48.53-12.05c6.34,0.32,46.94-3.81,63.44,1.9"/>
		</g>
	</g>
	<g id="o1">
		<g id="o_main1">
			<defs>
				<path id="SVGID_7_" d="M185.05,121.93c-2.7,3-5.45,5.77-8.24,8.32c-2.8,2.55-5.47,4.72-8.02,6.52c-2.55,1.8-4.9,3.17-7.04,4.12
					c-2.15,0.95-3.92,1.32-5.32,1.12c-3.3-0.3-6.25-1.03-8.84-2.17c-2.6-1.15-4.85-2.5-6.74-4.05c-1.9-1.55-3.45-3.25-4.65-5.1
					c-1.2-1.85-2.05-3.67-2.55-5.47c-1.1-3.7-1.3-7.52-0.6-11.47c0.7-3.95,1.9-7.79,3.6-11.54c1.7-3.75,3.72-7.29,6.07-10.64
					c2.35-3.35,4.62-6.34,6.82-8.99c2.2-2.65,4.2-4.82,6-6.52c1.8-1.7,3-2.75,3.6-3.15c-0.2,0.7,0.25,1.8,1.35,3.3
					c3-4.29,6.37-8.02,10.12-11.17c3.75-3.15,7.72-4.67,11.92-4.57c3.3,0.2,6.37,0.97,9.22,2.32c2.85,1.35,5.32,2.97,7.42,4.87
					c2.1,1.9,3.75,3.9,4.95,6c1.2,2.1,1.9,3.95,2.1,5.55c0.1,4.1-0.63,8.29-2.17,12.59c-1.55,4.3-3.62,8.64-6.22,13.04
					L185.05,121.93z M155.23,110.99c-1.9,3.2-3.32,6.32-4.27,9.37c-0.95,3.05-1.07,5.67-0.37,7.87c0,0.7,0.15,1.2,0.45,1.5
					c1.2,0.9,3.2,0.22,6-2.02c2.8-2.25,5.94-5.32,9.44-9.22l8.09-10.34c2.4-3.3,4.67-6.67,6.82-10.12c2.15-3.45,3.95-6.64,5.4-9.59
					c1.45-2.95,2.47-5.57,3.07-7.87c0.6-2.3,0.55-4-0.15-5.1c-0.7-0.4-1.75-0.4-3.15,0c-1.4,0.4-2.95,1.12-4.65,2.17
					c-1.7,1.05-3.45,2.4-5.25,4.05c-1.8,1.65-3.5,3.42-5.1,5.32c0.8,0.5,1.55,0.9,2.25,1.2c0.7,0.3,1.25,0.35,1.65,0.15h0.15
					c-1.4,0.8-2.92,1.9-4.57,3.3c-1.65,1.4-3.37,3.05-5.17,4.95L155.23,110.99z"/>
			</defs>
			<clipPath id="SVGID_8_">
				<use xlink:href="#SVGID_7_"  style="overflow:visible;"/>
			</clipPath>
			<path class="st8" d="M166.66,78.5c0,0-30.68,26.19-25.37,43.98s5.29,12.46,12.38,15.65s31.18-27.07,32.87-29.81
				c1.69-2.75,18.64-23.52,11.42-34.3s-19.45-6.09-19.45-6.09S164.96,84,162.43,89.49"/>
		</g>
		<g id="o_swash1">
			<defs>
				<path id="SVGID_9_" d="M165.87,96.6c-0.6,1.9-0.9,3.75-0.9,5.55c0,1.8,0.55,3.55,1.65,5.25c0.2,0.2,1.07,0.35,2.62,0.45
					c1.55,0.1,3.32,0.2,5.32,0.3l23.23-3.3c2.1-0.9,4.35-2.07,6.74-3.52c2.4-1.45,4.89-3.32,7.49-5.62l-8.09,21.88
					c-3.7,1.5-7.17,2.55-10.42,3.15c-3.25,0.6-6.07,1-8.47,1.2l-18.58-3.45c-4.4-2.2-8.14-4.7-11.24-7.49l3.76-7.69L165.87,96.6z"/>
			</defs>
			<clipPath id="SVGID_10_">
				<use xlink:href="#SVGID_9_"  style="overflow:visible;"/>
			</clipPath>
			<path class="st9" d="M159.88,95.7c0,0,4.89,14.8,20.54,14.8s35.95-6.67,38.06-9.05"/>
		</g>
	</g>
	<g id="o2">
		<g id="o_main2">
			<defs>
				<path id="SVGID_11_" d="M259.84,118.33c-2.9,3.5-5.9,6.77-8.99,9.82c-3.1,3.05-6.1,5.7-8.99,7.94c-2.9,2.25-5.6,4-8.09,5.25
					c-2.5,1.25-4.55,1.87-6.14,1.87c-3-0.4-5.77-1.2-8.32-2.4c-2.55-1.2-4.82-2.57-6.82-4.12c-2-1.55-3.67-3.2-5.02-4.95
					c-1.35-1.75-2.27-3.47-2.77-5.17c-0.5-1.4-0.8-2.87-0.9-4.42c-0.1-1.55-0.05-3.07,0.15-4.57l8.09-21.88
					c1.8-3,3.75-5.79,5.84-8.39c2.1-2.6,4.07-4.89,5.92-6.89c1.85-2,3.47-3.65,4.87-4.95c1.4-1.3,2.35-2.15,2.85-2.55
					c1.6-2.2,3.32-4.22,5.17-6.07c1.85-1.85,3.82-3.45,5.92-4.8c2.1-1.35,4.29-2.32,6.59-2.92c2.3-0.6,4.7-0.75,7.19-0.45h-0.15
					c3.3,0.4,6.34,1.3,9.14,2.7c2.8,1.4,5.22,3,7.27,4.8c2.05,1.8,3.67,3.7,4.87,5.7c1.2,2,1.9,3.8,2.1,5.4
					c0,4-0.82,8.27-2.47,12.81c-1.65,4.55-3.87,9.07-6.67,13.56c-0.2,1.5-0.8,2.4-1.8,2.7c0,0.1-0.05,0.15-0.15,0.15L259.84,118.33z
					 M262.84,79.81c1-2.9,1.1-4.95,0.3-6.14c-0.6-0.5-1.52-0.6-2.77-0.3c-1.25,0.3-2.7,0.92-4.35,1.87c-1.65,0.95-3.45,2.15-5.4,3.6
					c-1.95,1.45-3.92,3.12-5.92,5.02c1.2,1.3,2.05,2.4,2.55,3.3v1.65c-1.7,1-3.57,2.45-5.62,4.35c-2.05,1.9-4.1,4.07-6.15,6.52
					c-2.05,2.45-4,5.02-5.84,7.72c-1.85,2.7-3.45,5.4-4.8,8.09c-1.35,2.7-2.32,5.27-2.92,7.72c-0.6,2.45-0.65,4.57-0.15,6.37
					l0.75,1.35c0.9,0.6,2.27,0.3,4.12-0.9c1.85-1.2,3.97-3,6.37-5.4c2.4-2.4,4.95-5.27,7.64-8.62c2.7-3.35,5.34-6.82,7.94-10.42
					L262.84,79.81z"/>
			</defs>
			<clipPath id="SVGID_12_">
				<use xlink:href="#SVGID_11_"  style="overflow:visible;"/>
			</clipPath>
			<path class="st10" d="M277.42,60.9c0,0-25.29,2.54-34.74,14.38c-9.45,11.84-26.16,23.68-26.58,39.75
				c-0.42,16.07-2.96,21.57,7.19,22.84c10.15,1.27,25.16-10.15,29.6-17.76c4.44-7.61,17.34-26.64,17.97-34.68s5.92-18.61,4.65-20.51
				"/>
		</g>
		<g id="o_swash2">
			<defs>
				<path id="SVGID_13_" d="M268.68,106.34c0,0.1-0.05,0.15-0.15,0.15c1.1-0.1,2.27-0.47,3.52-1.12c1.25-0.65,2.52-1.45,3.82-2.4
					c1.3-0.95,2.55-2,3.75-3.15c1.2-1.15,2.3-2.22,3.3-3.22c2-2.1,3.75-3.9,5.25-5.4c1.5-1.5,2.6-2.35,3.3-2.55
					c2.7-0.6,4.8-0.08,6.3,1.57c1.5,1.65,2.45,3.92,2.85,6.82c0,0.5-0.5,1.5-1.5,3c-1,1.5-2.35,3.25-4.05,5.25
					c-1.4,1.6-3.1,3.27-5.1,5.02c-2,1.75-4.15,3.37-6.45,4.87c-2.3,1.5-4.7,2.72-7.19,3.67c-2.5,0.95-4.95,1.42-7.34,1.42
					c-0.7,0-1.9-0.12-3.6-0.37c-1.7-0.25-3.55-0.77-5.55-1.57l-11.24-12.74c-0.7-2.9-1.15-5.85-1.35-8.84c-0.2-3-0.2-5.64,0-7.94
					v-1.65c0.2-2,0.45-3.45,0.75-4.35c0.5-1.6,1.47-2.77,2.92-3.52c1.45-0.75,3.12-1.12,5.02-1.12c2.2,0,4.5,0.55,6.89,1.65
					L268.68,106.34z"/>
			</defs>
			<clipPath id="SVGID_14_">
				<use xlink:href="#SVGID_13_"  style="overflow:visible;"/>
			</clipPath>
			<path class="st11" d="M253.69,75.17c0,0-1.92,43.73,13.96,41.87s35.21-28.2,35.21-28.2"/>
		</g>
	</g>
	<g id="g">
		<g id="g_top">
			<defs>
				<path id="SVGID_15_" d="M320.54,127.62c-4.7,3.8-9.14,7.07-13.34,9.82c-4.2,2.75-7.6,4.37-10.19,4.87
					c-1.3,0-2.72-0.18-4.27-0.52c-1.55-0.35-3.15-1.03-4.8-2.02c-1.65-1-3.32-2.45-5.02-4.35c-1.7-1.9-3.3-4.4-4.8-7.49
					c-1.4-3-1.75-6.69-1.05-11.09c0.7-4.4,2.2-8.99,4.5-13.79c2.3-4.8,5.25-9.62,8.84-14.46c3.6-4.85,7.62-9.24,12.07-13.19
					c4.44-3.95,9.19-7.22,14.24-9.82c5.04-2.6,10.17-4.1,15.36-4.5c2.5-0.2,5.27,0.07,8.32,0.82c3.05,0.75,5.97,1.9,8.77,3.45
					c2.8,1.55,5.29,3.47,7.49,5.77c2.2,2.3,3.75,4.85,4.65,7.64c0.2,0.7-0.05,1.2-0.75,1.5L320.54,127.62z M340.92,87.31
					c1.3-2,2.5-3.67,3.6-5.02c1.1-1.35,2.1-2.27,3-2.77c-0.2-0.4-0.3-0.65-0.3-0.75c-0.1-0.3-0.35-0.6-0.75-0.9
					c-0.4-0.3-0.85-0.4-1.35-0.3c-4.1,0.3-8.39,1.65-12.89,4.05c-4.5,2.4-8.84,5.37-13.04,8.92c-4.2,3.55-8.12,7.4-11.77,11.54
					c-3.65,4.15-6.67,8.07-9.07,11.77c-2.4,3.7-4.05,6.92-4.95,9.67c-0.9,2.75-0.7,4.47,0.6,5.17c1.3,0.3,3.22-0.35,5.77-1.95
					c2.55-1.6,5.42-3.7,8.62-6.3c3.2-2.6,6.52-5.52,9.97-8.77c3.45-3.25,6.64-6.39,9.59-9.44c2.95-3.05,5.52-5.82,7.72-8.32
					c2.2-2.5,3.65-4.35,4.35-5.55L340.92,87.31z"/>
			</defs>
			<clipPath id="SVGID_16_">
				<use xlink:href="#SVGID_15_"  style="overflow:visible;"/>
			</clipPath>
			<path class="st12" d="M363.12,68.15c0,0-30.77-8.25-50.43,13.64s-26.64,32.93-26.01,39.14c0.63,6.21,1.58,16.16,13.96,13.83
				c12.37-2.33,49.48-45.99,49.8-48.53c0.32-2.54,9.2-11.1,10.94-14.59"/>
		</g>
		<g id="g_middle">
			<defs>
				<path id="SVGID_17_" d="M360.56,80.26l1.65,0.45c0.5,0.3,1.07,0.85,1.72,1.65c0.65,0.8,1.17,1.67,1.57,2.62
					c0.4,0.95,0.55,2,0.45,3.15c-0.1,1.15-0.6,2.27-1.5,3.37l0.3-0.15c-0.3,0.5-0.75,1.35-1.35,2.55c-0.6,1.2-1.4,2.8-2.4,4.8
					l-8.24,16.64l-16.49,29.68c-2,3.3-4.02,6.49-6.07,9.59c-2.05,3.1-4.1,5.97-6.15,8.62c-2.05,2.65-4.07,5.02-6.07,7.12
					c-2,2.1-3.95,3.8-5.84,5.1l0.15-0.15c-1.4,1-2.82,1.65-4.27,1.95c-1.45,0.3-2.87,0.45-4.27,0.45c-2.8-0.3-5.35-1.03-7.64-2.17
					l17.09-34.25c1.2-2.1,2.42-4.32,3.67-6.67c1.25-2.35,2.47-4.67,3.67-6.97L360.56,80.26z"/>
			</defs>
			<clipPath id="SVGID_18_">
				<use xlink:href="#SVGID_17_"  style="overflow:visible;"/>
			</clipPath>
			<path class="st13" d="M360.58,75.17c0,0-54.31,105.97-61.85,106.89"/>
		</g>
		<g id="g_bottom">
			<defs>
				<path id="SVGID_19_" d="M352.82,115.33c3-2.6,5.89-5.22,8.69-7.87c2.8-2.65,5.42-5.15,7.87-7.49c2.45-2.35,4.62-4.5,6.52-6.44
					c1.9-1.95,3.45-3.52,4.65-4.72c2.9-0.8,5.15-0.3,6.74,1.5c1.6,1.8,2.65,4.3,3.15,7.49c-2.3,3-5.5,6.57-9.59,10.72
					c-4.1,4.15-8.64,8.42-13.64,12.81c-5,4.4-10.19,8.67-15.59,12.81c-5.4,4.15-10.49,7.77-15.29,10.87l-40.17,30.5
					c-2.3-1.15-4.25-2.6-5.85-4.35c-1.6-1.75-2.8-3.65-3.6-5.7c-0.8-2.05-1.1-4.12-0.9-6.22c0.6-3.5,2.72-6.35,6.37-8.54
					c3.65-2.2,8.27-4.4,13.86-6.59l7.19-2.85L352.82,115.33z"/>
			</defs>
			<clipPath id="SVGID_20_">
				<use xlink:href="#SVGID_19_"  style="overflow:visible;"/>
			</clipPath>
			<path class="st14" d="M308.56,181.59c0,0-19.67-16.86-10.36-20.67c9.3-3.81,65.97-42.08,71.26-49.48
				c5.29-7.4,21.36-20.72,23.05-25.8"/>
		</g>
	</g>
	<g id="l">
		<defs>
			<path id="SVGID_21_" d="M421.41,32.45c2.4,0.6,4.59,1.63,6.59,3.07c2,1.45,3.67,3.02,5.02,4.72c1.35,1.7,2.27,3.3,2.77,4.8
				c0.5,1.5,0.4,2.55-0.3,3.15c-4.2,3.2-8.67,7.32-13.41,12.37c-4.75,5.05-9.42,10.47-14.01,16.26c-4.6,5.8-8.99,11.67-13.19,17.61
				c-4.2,5.95-7.87,11.32-11.02,16.11s-5.65,8.77-7.49,11.91c-1.85,3.15-2.67,4.87-2.47,5.17c1.8-0.1,4.1-1.05,6.89-2.85
				c2.8-1.8,5.77-4.05,8.92-6.74c3.15-2.7,6.34-5.62,9.59-8.77c3.25-3.15,6.24-6.12,8.99-8.92c2.75-2.8,5.02-5.19,6.82-7.19
				c1.8-2,2.9-3.2,3.3-3.6c1-1.1,2.02-1.65,3.07-1.65c1.05,0,2.07,0.37,3.07,1.12c1,0.75,1.87,1.8,2.62,3.15
				c0.75,1.35,1.27,2.82,1.57,4.42c-0.1,0.6-1.15,2.07-3.15,4.42c-2,2.35-4.55,5.15-7.64,8.39c-3.1,3.25-6.52,6.65-10.27,10.19
				c-3.75,3.55-7.44,6.85-11.09,9.89c-3.65,3.05-7.04,5.57-10.19,7.57c-3.15,2-5.57,3.05-7.27,3.15c-0.2,0-0.4-0.03-0.6-0.07
				c-0.2-0.05-0.4-0.08-0.6-0.08c-1,0-2.12-0.1-3.37-0.3c-1.25-0.2-2.55-0.65-3.9-1.35c-1.35-0.7-2.7-1.75-4.05-3.15
				c-1.35-1.4-2.67-3.35-3.97-5.84c-0.4-1.3,0.05-3.72,1.35-7.27c1.3-3.55,3.17-7.74,5.62-12.59c2.45-4.85,5.29-10.17,8.54-15.96
				c3.25-5.79,6.64-11.59,10.19-17.39c3.55-5.79,7.12-11.36,10.72-16.71c3.6-5.34,6.89-10.07,9.89-14.16c3-4.1,5.62-7.32,7.87-9.67
				C419.08,33.33,420.61,32.25,421.41,32.45z"/>
		</defs>
		<clipPath id="SVGID_22_">
			<use xlink:href="#SVGID_21_"  style="overflow:visible;"/>
		</clipPath>
		<path class="st15" d="M431.63,35.95c0,0-32.14,34.74-41.02,52.89s-24.05,32.96-21.99,41.27c2.06,8.31,11.84,4.8,11.84,4.8
			s42.71-34.59,49.06-48.59"/>
	</g>
	<g id="e">
		<g id="e_loop">
			<defs>
				<path id="SVGID_23_" d="M441.79,96.15c1.3-0.2,2.8-0.9,4.5-2.1c1.7-1.2,3.4-2.67,5.1-4.42c1.7-1.75,3.27-3.57,4.72-5.47
					c1.45-1.9,2.62-3.65,3.52-5.25l5.1-14.91c2,1.35,3.95,3,5.84,4.95c1.9,1.95,3.35,4.17,4.35,6.67c0.7,1.8,0.57,3.87-0.38,6.22
					c-0.95,2.35-2.37,4.72-4.27,7.12c-1.9,2.4-4.07,4.77-6.52,7.12c-2.45,2.35-4.85,4.45-7.19,6.29c-2.35,1.85-4.52,3.35-6.52,4.5
					c-2,1.15-3.45,1.72-4.35,1.72c-1.5,0.2-3.15-0.02-4.95-0.67c-1.8-0.65-3.55-1.37-5.25-2.17L441.79,96.15z"/>
			</defs>
			<clipPath id="SVGID_24_">
				<use xlink:href="#SVGID_23_"  style="overflow:visible;"/>
			</clipPath>
			<path class="st16" d="M435.49,100.44c0,0,7.76,5.29,16.22,0c8.46-5.29,19.24-15.65,18.18-21.15c-1.06-5.5-7.19-14.38-11-14.17"/>
		</g>
		<g id="e_main">
			<defs>
				<path id="SVGID_25_" d="M459.62,78.91c-3,1.5-6.05,3.8-9.14,6.89c-3.1,3.1-5.99,6.55-8.69,10.34l-6.29,9.59
					c-1.4,2.5-2.65,4.95-3.75,7.34c-1.1,2.4-2.02,4.67-2.77,6.82c-0.75,2.15-1.3,4.15-1.65,5.99c-0.35,1.85-0.43,3.42-0.22,4.72
					c1.9-0.2,4.44-1.32,7.64-3.37c3.2-2.05,6.67-4.55,10.42-7.49c3.75-2.95,7.54-6.09,11.39-9.44c3.85-3.35,7.37-6.49,10.57-9.44
					c3.2-2.95,5.87-5.44,8.02-7.49c2.15-2.05,3.37-3.22,3.67-3.52c1-0.9,2.15-1.25,3.45-1.05c1.3,0.2,2.5,0.75,3.6,1.65
					c1.1,0.9,1.97,2.05,2.62,3.45c0.65,1.4,0.87,2.85,0.67,4.35c0,0.3-0.67,1.18-2.02,2.62c-1.35,1.45-3.12,3.25-5.32,5.4
					c-2.2,2.15-4.75,4.55-7.64,7.19c-2.9,2.65-5.92,5.32-9.07,8.02c-3.15,2.7-6.3,5.32-9.44,7.87c-3.15,2.55-6.14,4.8-8.99,6.74
					c-2.85,1.95-5.4,3.5-7.64,4.65c-2.25,1.15-4.02,1.72-5.32,1.72c-1.3,0-3.07-0.18-5.32-0.52c-2.25-0.35-4.6-0.95-7.04-1.8
					c-2.45-0.85-4.82-2.07-7.12-3.67c-2.3-1.6-4.2-3.7-5.7-6.3c-1-1.9-1.8-3.8-2.4-5.7c-1.1-4.2-1.17-8.64-0.22-13.34
					c0.95-4.7,2.62-9.37,5.02-14.01c2.4-4.65,5.32-9.12,8.77-13.41c3.45-4.29,7.17-8.14,11.17-11.54c4-3.4,8.04-6.17,12.14-8.32
					c4.1-2.15,7.94-3.42,11.54-3.82c1-0.1,2.45,0.2,4.35,0.9c1.9,0.7,3.85,1.72,5.84,3.07c2,1.35,3.95,3,5.84,4.95L459.62,78.91z"/>
			</defs>
			<clipPath id="SVGID_26_">
				<use xlink:href="#SVGID_25_"  style="overflow:visible;"/>
			</clipPath>
			<path class="st17" d="M465.96,60.01c0,0-28.55,17.22-34.89,30.33s-17.55,28.09-11,37.62s9.09,9.11,15.22,8.68
				c6.13-0.42,31.72-23.05,34.26-25.16s17.34-18.76,19.67-23.65"/>
		</g>
	</g>
</g>
</svg>
