<?xml version="1.0" encoding="utf-8"?>
<!-- Generator: Adobe Illustrator 24.0.0, SVG Export Plug-In . SVG Version: 6.00 Build 0)  -->
<svg version="1.1" xmlns="http://www.w3.org/2000/svg" xmlns:xlink="http://www.w3.org/1999/xlink" x="0px" y="0px"
	 viewBox="0 0 489.2 216.9" style="enable-background:new 0 0 489.2 216.9;" xml:space="preserve">
<style type="text/css">
	.st0{opacity:0.49;}
	.st1{fill:none;stroke:#29ABE2;stroke-miterlimit:10;}
	.st2{fill:none;stroke:#29ABE2;stroke-miterlimit:10;stroke-dasharray:4.0173,4.0173;}
	.st3{opacity:0.49;fill:none;stroke:#29ABE2;stroke-miterlimit:10;enable-background:new    ;}
	.st4{fill:#CCCCCC;}
	.st5{clip-path:url(#g_6_);fill:none;stroke:#148F77;stroke-width:8;stroke-linecap:square;stroke-miterlimit:10;}
	.st6{clip-path:url(#G_5_);fill:none;stroke:#148F77;stroke-width:8;stroke-miterlimit:10;}
	.st7{clip-path:url(#G_6_);fill:none;stroke:#148F77;stroke-width:8;stroke-miterlimit:10;}
	.st8{clip-path:url(#G_7_);fill:none;stroke:#148F77;stroke-width:8;stroke-miterlimit:10;}
	.st9{clip-path:url(#o_6_);fill:none;stroke:#148F77;stroke-width:8;stroke-miterlimit:10;}
	.st10{clip-path:url(#o_7_);fill:none;stroke:#148F77;stroke-width:8;stroke-miterlimit:10;}
	.st11{clip-path:url(#o_8_);fill:none;stroke:#148F77;stroke-width:8;stroke-miterlimit:10;}
	.st12{clip-path:url(#o_9_);fill:none;stroke:#148F77;stroke-width:8;stroke-miterlimit:10;}
	.st13{clip-path:url(#g_7_);fill:none;stroke:#148F77;stroke-width:8;stroke-miterlimit:10;}
	.st14{clip-path:url(#g_8_);fill:none;stroke:#148F77;stroke-width:8;stroke-miterlimit:10;}
	.st15{clip-path:url(#g_9_);fill:none;stroke:#148F77;stroke-width:8;stroke-miterlimit:10;}
	.st16{clip-path:url(#l_4_);fill:none;stroke:#148F77;stroke-width:8;stroke-miterlimit:10;}
	.st17{clip-path:url(#l_5_);fill:none;stroke:#148F77;stroke-width:8;stroke-miterlimit:10;}
	.st18{clip-path:url(#e_4_);fill:none;stroke:#148F77;stroke-width:8;stroke-miterlimit:10;}
	.st19{clip-path:url(#e_5_);fill:none;stroke:#148F77;stroke-width:8;stroke-miterlimit:10;}
</style>
<g id="Layer_1">
	<g id="lines" class="st0">
		<g>
			<line class="st1" x1="-0.8" y1="80.1" x2="1.2" y2="80.1"/>
			<line class="st2" x1="5.2" y1="80.1" x2="485.3" y2="80.1"/>
			<line class="st1" x1="487.3" y1="80.1" x2="489.3" y2="80.1"/>
		</g>
		<line class="st3" x1="-0.2" y1="147.2" x2="489.9" y2="147.2"/>
		<line class="st3" x1="0.2" y1="23.1" x2="490.3" y2="23.1"/>
	</g>
	<path id="G" class="st4" d="M181,112.7c1,2.2-1.7,4.4-3.2,5.9c-3.2,3.7-6.7,7.2-10.6,10.4c-6.4,5.2-13.8,9.4-21.7,11.6
		c-10.9,3.2-22.2,3-33.3,0.5c-1-0.2-1.5-0.5-2.2,0l-2.7,1.5c-1.7,1-3.5,1.7-5.4,2.5c-3.7,1.5-7.9,2.5-11.8,3c-6.2,1-12.6,0.5-18.3-2
		c-3.9-1.5-7.6-3.9-10.4-7.2c-2.2-2.7-4.2-5.9-5.2-9.1c-1-2.5-1.5-5.2-0.5-7.6c1-3.2,4.2-3.5,7.2-3.2c3.2,0,6.4,0.7,9.4,1.7
		c7.9,2.7,15,6.4,22.7,9.4c4.2,1.5,8.1,3,12.3,3.9c1,0.5,2.2,1,3.2,0.5l1.5-1.2l3.5-2.2c4.4-3.5,8.6-7.6,12.3-11.8
		c7.9-9.1,14.5-19.5,20-30.3c8.9-17.8,15.8-36.7,20.2-56c-5.9,3.5-12.6,5.4-19.2,7.2c-8.1,2-16.5,3.2-24.9,3.7
		c-4.2,0.2-8.4,0.5-12.6,0l-3-0.5c-0.2,0.5-0.7,1-1,1.7l-2,3.2c-3,4.9-6.2,9.9-9.4,14.6c-7.4,10.6-15,21-23.2,30.8
		c-8.1,9.6-16.5,19.2-25.4,28.4c-7.6,7.6-15.3,15-23.9,21.5c-5.4,3.9-11.8,8.6-18.7,9.6c-2,0.2-4.7,0-4.7-2.7s2.5-2.5,4.4-3
		c2.7-0.5,5.2-1.7,7.6-3c7.6-4.4,14.5-10.6,21.2-16.5c8.6-8.1,17-17,24.9-26.1c16.5-18.5,32.1-38.5,44.6-59.9
		c-4.9-1.7-9.1-5.2-11.1-9.9c-3.2-6.7-1.7-14.5,2-21c3.2-5.9,9.9-12.1,17.3-10.6c3.2,0.7,6.2,2.7,7.6,5.4c1.5,3.2,1.5,6.9,1,10.1
		c-1.2,7.9-4.7,15.3-8.4,22.2c3.7,0.2,7.4,0.2,11.1,0.2c8.1-0.5,16-1.5,23.9-3.2c5.9-1.5,11.8-3.2,17.3-6.2c2-1,3.7-2,5.2-3.5
		c1.2-1.2,2.7-3.7,4.9-2c2.2,1.5,1,4.9,0.5,7.2c-3.5,17.3-9.4,34.3-16.5,50.6c-9.1,20.7-21.7,41.7-40.4,55.5
		c9.9,1.5,20,1.2,29.3-2.2c12.1-4.2,22-12.8,29.8-22.4C177.6,110.2,180.3,110.7,181,112.7z M102.8,138.6c-4.7-1.5-9.1-3.2-13.8-5.2
		c-7.2-3-14.3-6.7-22.2-8.4c-1.2-0.5-2.7-0.7-4.2-0.7c-0.7,0-1.2,0-2,0.2c0,0.2,0,0.7,0.2,1.2c0.5,3.2,2.2,6.2,4.2,8.9
		c7.4,8.6,19.5,9.4,29.8,6.9C97.7,140.8,100.4,139.6,102.8,138.6z M113.7,16.7c0.7-3,1.5-6.9-0.7-9.4c-2.2-2.7-5.9-2-8.6-0.5
		c-5.2,3.5-8.6,10.4-8.6,16.5c-0.2,6.7,3.7,11.1,9.9,13.3C109,30.3,112.2,23.7,113.7,16.7z"/>
	<path id="o" class="st4" d="M248.8,119.6l-6.7,6.7c-3.7,3.2-7.9,6.4-12.6,7.9c-2.7,0.7-5.7,1.2-8.6,0.7c-1.5-0.2-3-0.5-4.4-1
		c-0.7-0.2-1.5-0.5-2.2-1l-2.2,2.2c-5.2,5.4-11.6,10.4-19,12.1c-6.9,1.5-14.1-0.7-17.5-7.2c-2.7-5.2-2.7-11.6-1.7-17.3
		c2.2-12.1,8.9-23.4,17.3-32.3c2.5-2.5,5.2-4.9,7.9-7.2c1.2-0.7,3-2.5,4.4-2.5c1.7,0.2,2.7,1.5,2.7,3c-0.2,2-2,2.7-3.2,3.7
		c-1.5,1-2.7,2-3.9,3.2c-2.7,2.2-5.2,4.7-7.4,7.4c-3.9,5.2-7.4,10.6-9.6,16.8c-2,4.9-3.5,10.1-3.2,15.5c0.2,6.4,3.9,12.6,11.1,11.6
		c7.6-1,14.5-6.7,19.5-12.1c-8.6-7.9-7.2-22.4-3.9-32.8c1.7-5.4,4.4-11.8,9.4-15.3c5.2-3.7,11.8-3,14.8,2.7
		c3.7,6.7,2.7,15.8,0.2,22.7c-2.5,7.6-6.9,15-11.8,21.2c5.2,2,10.4,0.7,15-2.2c3-2,5.9-4.4,8.4-7.2l5.2-5.4c1-1.5,2.7-2.7,4.4-1.2
		C253.8,114.9,250.3,117.9,248.8,119.6z M219.7,115.9c4.2-6.9,7.4-14.8,6.7-23.2c-0.2-2.5-0.7-5.9-3.2-7.4c-2.2-1-4.9,0.7-6.4,2.2
		c-4.7,4.9-6.9,12.3-7.9,18.7c-1,6.4-0.7,14.5,4.2,19.5C215.5,122.6,217.8,119.3,219.7,115.9z"/>
	<path id="o_1_" class="st4" d="M320.1,119.6l-6.7,6.7c-3.7,3.2-7.9,6.4-12.6,7.9c-2.7,0.7-5.7,1.2-8.6,0.7c-1.5-0.2-3-0.5-4.4-1
		c-0.7-0.2-1.5-0.5-2.2-1l-2.2,2.2c-5.2,5.4-11.6,10.4-19,12.1c-6.9,1.5-14.1-0.7-17.5-7.2c-2.7-5.2-2.7-11.6-1.7-17.3
		c2.2-12.1,8.9-23.4,17.3-32.3c2.5-2.5,5.2-4.9,7.9-7.2c1.2-0.7,3-2.5,4.4-2.5c1.7,0.2,2.7,1.5,2.7,3c-0.2,2-2,2.7-3.2,3.7
		c-1.5,1-2.7,2-3.9,3.2c-2.7,2.2-5.2,4.7-7.4,7.4c-3.9,5.2-7.4,10.6-9.6,16.8c-2,4.9-3.5,10.1-3.2,15.5c0.2,6.4,3.9,12.6,11.1,11.6
		c7.6-1,14.5-6.7,19.5-12.1c-8.6-7.9-7.2-22.4-3.9-32.8c1.7-5.4,4.4-11.8,9.4-15.3c5.2-3.7,11.8-3,14.8,2.7
		c3.7,6.7,2.7,15.8,0.2,22.7c-2.5,7.6-6.9,15-11.8,21.2c5.2,2,10.4,0.7,15-2.2c3-2,5.9-4.4,8.4-7.2l5.2-5.4c1-1.5,2.7-2.7,4.4-1.2
		C325,114.9,321.6,117.9,320.1,119.6z M291,115.9c4.2-6.9,7.4-14.8,6.7-23.2c-0.2-2.5-0.7-5.9-3.2-7.4c-2.2-1-4.9,0.7-6.4,2.2
		c-4.7,4.9-6.9,12.3-7.9,18.7c-1,6.4-0.7,14.5,4.2,19.5C286.8,122.6,289,119.3,291,115.9z"/>
	<path id="g" class="st4" d="M387.4,115.9c-0.7,1.2-2,2.5-3.2,3.7l-2.7,3.2c-4.2,4.2-8.4,8.1-12.8,11.8c-3,2.5-5.9,4.7-8.9,6.9
		l-5.4,3.7c-1,0.7-1.2,1.5-1.7,2.7l-6.2,14.1c-5.2,11.6-9.9,23.2-15.8,34.3c-2.5,4.9-5.2,9.9-8.9,14.3c-2.5,3-5.7,5.7-9.6,6.2
		c-7.4,1-11.3-5.2-11.8-11.8c-0.5-4.7,0.5-9.4,2-13.8c3.7-11.3,11.3-21.5,20-29.6c5.7-5.4,12.3-9.9,19-14.1l7.4-4.9
		c0.7-0.5,1-1.5,1.2-2l3.7-8.9l-1.7,2c-4.9,5.7-10.6,11.3-17.8,13.8c-5.9,2-13.6,2.2-18-2.7c-3.7-3.9-4.2-9.9-3.5-15
		c1-6.9,4.2-13.3,8.1-19.2c11.3-17.5,33-34.5,55.5-30.8c1.7,0.2,4.4,0.7,4.7,3c0.2,1.7-1.2,4.2-2,5.7l-3.7,8.4l-17.3,39.2
		c9.1-6.9,17.5-14.6,24.9-23.2C385.2,110,389.4,113.2,387.4,115.9z M345,151.7c-5.7,3.7-11.1,7.2-16.3,11.6
		c-4.2,3.5-8.1,7.6-11.6,11.8c-4.9,6.4-9.1,14.1-10.9,21.9c-0.2,1.7-0.5,3.5-0.5,5.4c-0.2,2.7,0.2,6.7,2.7,8.4
		c3.9,2.5,8.1-2.5,10.4-5.4c3.9-5.2,6.9-11.3,9.6-17.3c3.9-7.9,7.4-15.8,10.9-23.9L345,151.7z M337.1,139.8c4.7-3,8.6-7.2,12.1-11.3
		c4.2-4.9,7.6-10.1,11.1-15.5c5.2-9.1,9.9-18.3,14.1-27.9c-7.6-1.2-15.5,0.7-22.4,4.2c-6.2,3.2-11.8,7.6-16.8,12.6
		c-5.7,5.7-10.9,12.3-14.3,19.7c-2,4.7-3.7,10.6-2.5,15.8c0.5,2.2,2,4.4,4.2,5.4c2.7,1,5.9,0.5,8.6-0.2
		C333.2,142,335.1,141,337.1,139.8z"/>
	<path id="l" class="st4" d="M454.2,23.4c-1.5,4.2-3.9,8.1-6.2,11.8c-5.7,9.4-12.1,18.3-18.7,27.1c-8.1,11.1-16.5,22-24.9,32.8
		c-0.7,0.7-1.2,1.5-1.7,2.5l-1,3l-2.2,5.9c-1.5,3.9-2.7,7.6-3.7,11.3c-1,3.2-1.7,6.4-2.2,9.6c-0.5,3.7-0.7,7.6,0.7,11.1
		c4.7,11.3,23.4-10.6,26.9-14.3l7.6-8.4c1.7-2,5.2-7.4,7.9-4.2c1.2,1.7,0.2,3.2-0.7,4.4c-1.5,1.7-3,3.2-4.2,4.9l-8.1,8.6
		c-4.2,4.7-8.6,9.1-13.6,12.8c-3.5,2.5-7.2,4.9-11.6,4.7c-7.6,0-10.6-7.2-10.9-13.8c-0.2-7.9,2.5-15.8,4.9-23.4
		c-1.7,2-3.2,3.9-4.7,5.9c-1.5,1.7-4.4,2-5.2-0.7c-0.7-2.2,2.7-5.2,3.9-6.7l5.9-7.6c1.5-1.5,2.7-3.2,4.2-4.9
		c0.5-0.7,1.5-1.7,1.7-2.7c0.5-0.7,0.7-1.7,1.2-2.7c2.2-5.9,4.4-11.6,6.9-17.3c3.5-8.9,6.9-17.8,10.9-26.4
		c2.7-5.9,5.7-11.8,8.6-17.8c2.7-5.2,5.7-10.6,9.6-15c3.5-4.2,9.6-9.4,15.3-6.4C456.7,10.3,456.2,18.5,454.2,23.4z M449.1,13
		c-0.7-1-2.2-0.7-3.2-0.5c-4.7,2-7.9,7.2-10.4,11.3c-3,4.4-5.4,9.4-7.6,14.3c-3.7,7.2-6.9,14.3-9.9,21.5l-7.4,18.5
		c7.6-10.1,15.3-20.2,22.4-30.3c5.4-7.9,11.1-15.8,15.3-24.4C449.6,20.7,451.3,15.8,449.1,13z"/>
	<path id="e" class="st4" d="M487,118.4l-5.9,6.7c-3.5,3.7-6.9,7.2-10.9,10.6c-7.9,6.7-18.2,13.6-29.1,12.3
		c-5.2-0.7-9.6-3.5-11.8-8.4c-2.5-5.7-1.7-12.3-0.5-18.3c3-12.3,9.9-24.4,19.2-33c3.9-3.7,8.6-6.9,13.8-7.9c5.7-1,12.3,0.5,14.3,6.4
		c2.5,8.9-5.9,16.5-12.3,21c-5.7,3.5-11.6,5.9-17.8,7.9c-2,0.7-3.9,1.2-5.9,1.7l-3,0.7c-0.5,0-1,0.2-1.5,0.2c-0.2,0-0.2,1-0.5,1
		c-1.2,3.9-2,8.1-2,12.3c0.2,2.7,0.7,5.9,2.7,8.1c1.7,1.5,3.9,2.5,6.2,2.5c4.7,0.5,9.4-1.2,13.6-3.2c5.7-3.2,10.9-7.4,15.8-12.1
		c3-2.7,5.7-5.9,8.4-8.9l4.4-5.4c1-1.2,2.7-1.5,3.9-0.5C490.5,114.2,488.3,116.6,487,118.4z M449.6,94.4
		c-4.7,5.2-8.4,11.1-11.3,17.5c10.1-2.5,21.5-6.4,28.6-14.1c2-2,3.7-4.4,4.2-7.2c0.5-4.4-3.7-5.4-7.4-4.9
		C458.2,86.3,453.3,90.5,449.6,94.4z"/>
</g>
<g id="Layer_2">
	<g id="G_4_">
		<g id="G_left">
			<defs>
				<path id="g_1_" d="M91.7,31.8c-3.2-6.7-1.7-14.5,2-21c3.2-5.9,9.9-12.1,17.3-10.6c3.2,0.7,6.2,2.7,7.6,5.4
					c1.5,3.2,1.5,6.9,1,10.1c-1.2,7.9-4.7,15.3-8.4,22.2l-3,5.2c-0.2,0.5-0.7,1-1,1.7l-2,3.2c-3,4.9-6.2,9.9-9.4,14.6
					c-7.4,10.6-15,21-23.2,30.8c-8.1,9.6-16.5,19.2-25.4,28.4c-7.6,7.6-15.3,15-23.9,21.5c-5.4,3.9-11.8,8.6-18.7,9.6
					c-2,0.2-4.7,0-4.7-2.7s2.5-2.5,4.4-3c2.7-0.5,5.2-1.7,7.6-3c7.6-4.4,14.5-10.6,21.2-16.5c8.6-8.1,17-17,24.9-26.1
					c16.5-18.5,32.1-38.5,44.6-59.9l2.7-4.9c3.5-6.4,6.7-13.1,8.1-20c0.7-3,1.5-6.9-0.7-9.4c-2.2-2.7-5.9-2-8.6-0.5
					c-5.2,3.5-8.6,10.4-8.6,16.5L91.7,31.8z"/>
			</defs>
			<clipPath id="g_6_">
				<use xlink:href="#g_1_"  style="overflow:visible;"/>
			</clipPath>
			<path class="st5" d="M-3.8,150.4c0,0,13.1,0,21.1-5.9c8-5.9,45.4-40.2,49.9-49.5s43.7-53.5,44-62.2c0.2-8.7,14-25,1.7-29.2
				s-18.6,11-18.6,11l-2.6,17.1"/>
		</g>
		<g id="G_middle">
			<defs>
				<path id="G_1_" d="M102.8,41.7c-4.9-1.7-9.1-5.2-11.1-9.9c-3.2-6.7-1.7-14.5,2-21l10.6-3.9c-5.2,3.5-8.6,10.4-8.6,16.5
					c-0.2,6.7,3.7,11.1,9.9,13.3l5.7,1.2c3.7,0.2,7.4,0.2,11.1,0.2c8.1-0.5,16-1.5,23.9-3.2c5.9-1.5,11.8-3.2,17.3-6.2
					c2-1,3.7-2,5.2-3.5c1.2-1.2,2.7-3.7,4.9-2c2.2,1.5,1,4.9,0.5,7.2l-6.2,2.2c-5.9,3.5-12.6,5.4-19.2,7.2c-8.1,2-16.5,3.2-24.9,3.7
					c-4.2,0.2-8.4,0.5-12.6,0l-3-0.5L102.8,41.7z"/>
			</defs>
			<clipPath id="G_5_">
				<use xlink:href="#G_1_"  style="overflow:visible;"/>
			</clipPath>
			<path class="st6" d="M104,4.5c0,0-11.6,7.9-11.4,16.1s4,16.2,10.5,18.2s33,1.3,37.1,0c4.1-1.3,24.7-6.7,28.2-9.2
				c3.5-2.5,5.7-4.1,7.6-5.8"/>
		</g>
		<g id="G_right">
			<defs>
				<path id="G_2_" d="M60.7,124.5c0,0.2,0,0.7,0.2,1.2c0.5,3.2,2.2,6.2,4.2,8.9c7.4,8.6,19.5,9.4,29.8,6.9c2.7-0.7,5.4-2,7.9-3
					l7.6-4.2l1.5-1.2l3.5-2.2c4.4-3.5,8.6-7.6,12.3-11.8c7.9-9.1,14.5-19.5,20-30.3c8.9-17.8,15.8-36.7,20.2-56l0.7-7.4
					c1.2-1.2,2.7-3.7,4.9-2c2.2,1.5,1,4.9,0.5,7.2c-3.5,17.3-9.4,34.3-16.5,50.6c-9.1,20.7-21.7,41.7-40.4,55.5L110,141l-2.7,1.5
					c-1.7,1-3.5,1.7-5.4,2.5c-3.7,1.5-7.9,2.5-11.8,3c-6.2,1-12.6,0.5-18.3-2c-3.9-1.5-7.6-3.9-10.4-7.2c-2.2-2.7-4.2-5.9-5.2-9.1
					c-1-2.5-1.5-5.2-0.5-7.6c1-3.2,4.2-3.5,7.2-3.2L60.7,124.5z"/>
			</defs>
			<clipPath id="G_6_">
				<use xlink:href="#G_2_"  style="overflow:visible;"/>
			</clipPath>
			<path class="st7" d="M173.6,18.6c0,0-6.8,36.5-13.1,48.8s-23.2,50.1-33.9,58.4s-23.2,18.4-33.9,18.7
				c-10.8,0.3-25.4,3.7-32.7-11.1c-7.1-14.5,2.9-14.6,2.9-14.6"/>
		</g>
		<g id="G_bottom">
			<defs>
				<path id="G_3_" d="M55.7,122.1c1-3.2,4.2-3.5,7.2-3.2c3.2,0,6.4,0.7,9.4,1.7c7.9,2.7,15,6.4,22.7,9.4c4.2,1.5,8.1,3,12.3,3.9
					c1,0.5,2.2,1,3.2,0.5l6.7,2.2c9.9,1.5,20,1.2,29.3-2.2c12.1-4.2,22-12.8,29.8-22.4c1.2-1.7,3.9-1.2,4.7,0.7
					c1,2.2-1.7,4.4-3.2,5.9c-3.2,3.7-6.7,7.2-10.6,10.4c-6.4,5.2-13.8,9.4-21.7,11.6c-10.9,3.2-22.2,3-33.3,0.5
					c-1-0.2-1.5-0.5-2.2,0l-7.2-2.5c-4.7-1.5-9.1-3.2-13.8-5.2c-7.2-3-14.3-6.7-22.2-8.4c-1.2-0.5-2.7-0.7-4.2-0.7
					c-0.7,0-1.2,0-2,0.2L55.7,122.1z"/>
			</defs>
			<clipPath id="G_7_">
				<use xlink:href="#G_3_"  style="overflow:visible;"/>
			</clipPath>
			<path class="st8" d="M55.7,124.8c0,0,2-5.1,9.9-2.9s30.8,12.4,41.6,14.9c10.8,2.5,17.4,6.3,30.8,2.5c13.3-3.8,22.8-7.6,25.7-10.8
				s13.9-12.7,17.6-19"/>
		</g>
	</g>
	<g id="o1">
		<g id="o_main1">
			<defs>
				<path id="o_2_" d="M214.8,81.9c5.2-3.7,11.8-3,14.8,2.7c3.7,6.7,2.7,15.8,0.2,22.7c-2.5,7.6-6.9,15-11.8,21.2l-3.7,4.4l-2.2,2.2
					c-5.2,5.4-11.6,10.4-19,12.1c-6.9,1.5-14.1-0.7-17.5-7.2c-2.7-5.2-2.7-11.6-1.7-17.3c2.2-12.1,8.9-23.4,17.3-32.3
					c2.5-2.5,5.2-4.9,7.9-7.2c1.2-0.7,3-2.5,4.4-2.5c1.7,0.2,2.7,1.5,2.7,3c-0.2,2-2,2.7-3.2,3.7c-1.5,1-2.7,2-3.9,3.2
					c-2.7,2.2-5.2,4.7-7.4,7.4c-3.9,5.2-7.4,10.6-9.6,16.8c-2,4.9-3.5,10.1-3.2,15.5c0.2,6.4,3.9,12.6,11.1,11.6
					c7.6-1,14.5-6.7,19.5-12.1l3.7-4.2c2.5-3.2,4.7-6.4,6.7-9.9c4.2-6.9,7.4-14.8,6.7-23.2c-0.2-2.5-0.7-5.9-3.2-7.4
					c-2.2-1-4.9,0.7-6.4,2.2L214.8,81.9z"/>
			</defs>
			<clipPath id="o_6_">
				<use xlink:href="#o_2_"  style="overflow:visible;"/>
			</clipPath>
			<path class="st9" d="M207.4,80.6c0,0-18,12.7-20.5,18.4c-2.5,5.7-10.1,15-9.7,27.1c0.4,12.1-0.8,13.1,3.6,17.1
				c4.4,4,16.1,1.5,19.7-1.3c3.6-2.7,13.1-10.8,16.7-16.7c3.6-5.9,9.3-13.1,10.4-21.1s1.9-13.5,0-17.6c-1.9-4-4-4-5.7-4.4
				c-1.7-0.4-7.8,3.5-7.8,3.5"/>
		</g>
		<g id="o_swash2">
			<defs>
				<path id="o_3_" d="M209.4,129.9c-8.6-7.9-7.2-22.4-3.9-32.8c1.7-5.4,4.4-11.8,9.4-15.3l2,5.7c-4.7,4.9-6.9,12.3-7.9,18.7
					c-1,6.4-0.7,14.5,4.2,19.5l4.9,2.7c5.2,2,10.4,0.7,15-2.2c3-2,5.9-4.4,8.4-7.2l5.2-5.4c1-1.5,2.7-2.7,4.4-1.2
					c2.7,2.5-0.7,5.4-2.2,7.2l-6.7,6.7c-3.7,3.2-7.9,6.4-12.6,7.9c-2.7,0.7-5.7,1.2-8.6,0.7c-1.5-0.2-3-0.5-4.4-1
					c-0.7-0.2-1.5-0.5-2.2-1L209.4,129.9z"/>
			</defs>
			<clipPath id="o_7_">
				<use xlink:href="#o_3_"  style="overflow:visible;"/>
			</clipPath>
			<path class="st10" d="M219.1,81.9c0,0-11,9.6-12.3,17.8s-1.5,20.5,0,22.4s8.2,11.2,14.6,10.4c6.3-0.8,15.6-3.2,19-7.2
				s11.2-11.4,12.9-14.6"/>
		</g>
	</g>
	<g id="o2">
		<g id="o_main1_1_">
			<defs>
				<path id="o_5_" d="M286.1,81.9c5.2-3.7,11.8-3,14.8,2.7c3.7,6.7,2.7,15.8,0.2,22.7c-2.5,7.6-6.9,15-11.8,21.2l-3.7,4.4l-2.2,2.2
					c-5.2,5.4-11.6,10.4-19,12.1c-6.9,1.5-14.1-0.7-17.5-7.2c-2.7-5.2-2.7-11.6-1.7-17.3c2.2-12.1,8.9-23.4,17.3-32.3
					c2.5-2.5,5.2-4.9,7.9-7.2c1.2-0.7,3-2.5,4.4-2.5c1.7,0.2,2.7,1.5,2.7,3c-0.2,2-2,2.7-3.2,3.7c-1.5,1-2.7,2-3.9,3.2
					c-2.7,2.2-5.2,4.7-7.4,7.4c-3.9,5.2-7.4,10.6-9.6,16.8c-2,4.9-3.5,10.1-3.2,15.5c0.2,6.4,3.9,12.6,11.1,11.6
					c7.6-1,14.5-6.7,19.5-12.1l3.7-4.2c2.5-3.2,4.7-6.4,6.7-9.9c4.2-6.9,7.4-14.8,6.7-23.2c-0.2-2.5-0.7-5.9-3.2-7.4
					c-2.2-1-4.9,0.7-6.4,2.2L286.1,81.9z"/>
			</defs>
			<clipPath id="o_8_">
				<use xlink:href="#o_5_"  style="overflow:visible;"/>
			</clipPath>
			<path class="st11" d="M278.7,80.6c0,0-18,12.7-20.5,18.4c-2.5,5.7-10.1,15-9.7,27.1s-0.8,13.1,3.6,17.1c4.4,4,16.1,1.5,19.7-1.3
				c3.6-2.7,13.1-10.8,16.7-16.7c3.6-5.9,9.3-13.1,10.4-21.1c1.1-8,1.9-13.5,0-17.6c-1.9-4-4-4-5.7-4.4c-1.7-0.4-7.8,3.5-7.8,3.5"/>
		</g>
		<g id="o_swash2_1_">
			<defs>
				<path id="o_4_" d="M280.6,129.9c-8.6-7.9-7.2-22.4-3.9-32.8c1.7-5.4,4.4-11.8,9.4-15.3l2,5.7c-4.7,4.9-6.9,12.3-7.9,18.7
					c-1,6.4-0.7,14.5,4.2,19.5l4.9,2.7c5.2,2,10.4,0.7,15-2.2c3-2,5.9-4.4,8.4-7.2l5.2-5.4c1-1.5,2.7-2.7,4.4-1.2
					c2.7,2.5-0.7,5.4-2.2,7.2l-6.7,6.7c-3.7,3.2-7.9,6.4-12.6,7.9c-2.7,0.7-5.7,1.2-8.6,0.7c-1.5-0.2-3-0.5-4.4-1
					c-0.7-0.2-1.5-0.5-2.2-1L280.6,129.9z"/>
			</defs>
			<clipPath id="o_9_">
				<use xlink:href="#o_4_"  style="overflow:visible;"/>
			</clipPath>
			<path class="st12" d="M290.3,81.9c0,0-11,9.6-12.3,17.8c-1.3,8.2-1.5,20.5,0,22.4c1.5,1.9,8.2,11.2,14.6,10.4
				c6.3-0.8,15.6-3.2,19-7.2c3.4-4,11.2-11.4,12.9-14.6"/>
		</g>
	</g>
	<g id="g_5_">
		<g id="g_top">
			<defs>
				<path id="g_2_" d="M353.6,131.7l-1.7,2c-4.9,5.7-10.6,11.3-17.8,13.8c-5.9,2-13.6,2.2-18-2.7c-3.7-3.9-4.2-9.9-3.5-15
					c1-6.9,4.2-13.3,8.1-19.2c11.3-17.5,33-34.5,55.5-30.8c1.7,0.2,4.4,0.7,4.7,3c0.2,1.7-1.2,4.2-2,5.7l-3.7,8.4L353.6,131.7z
					 M337.1,139.8c4.7-3,8.6-7.2,12.1-11.3c4.2-4.9,7.6-10.1,11.1-15.5c5.2-9.1,9.9-18.3,14.1-27.9c-7.6-1.2-15.5,0.7-22.4,4.2
					c-6.2,3.2-11.8,7.6-16.8,12.6c-5.7,5.7-10.9,12.3-14.3,19.7c-2,4.7-3.7,10.6-2.5,15.8c0.5,2.2,2,4.4,4.2,5.4
					c2.7,1,5.9,0.5,8.6-0.2C333.2,142,335.1,141,337.1,139.8z"/>
			</defs>
			<clipPath id="g_7_">
				<use xlink:href="#g_2_"  style="overflow:visible;"/>
			</clipPath>
			<path class="st13" d="M384.1,84.7c0,0-10.5-4.6-17.4-2.8c-7,1.8-20.3,4.9-27.3,11.3c-7,6.3-17.1,17.8-20,25.4s-7,16.5-3.8,20.9
				c3.2,4.4,7.9,7.3,11.4,6.7c3.5-0.6,14.6-3.5,17.8-7.9c3.2-4.4,21.3-27.9,23.2-33.6c1.9-5.7,12.7-23.8,16.2-30.1"/>
		</g>
		<g id="g_middle">
			<defs>
				<path id="g_3_" d="M305.8,202.5c-0.2,2.7,0.2,6.7,2.7,8.4c3.9,2.5,8.1-2.5,10.4-5.4c3.9-5.2,6.9-11.3,9.6-17.3
					c3.9-7.9,7.4-15.8,10.9-23.9l5.7-12.6l3.7-9.1c0.7-0.5,1-1.5,1.2-2l3.7-8.9l6.7-18.7c5.2-9.1,9.9-18.3,14.1-27.9l2-5.4
					c1.7,0.2,4.4,0.7,4.7,3c0.2,1.7-1.2,4.2-2,5.7l-3.7,8.4l-17.3,39.2l-3.7,9.4c-1,0.7-1.2,1.5-1.7,2.7l-6.2,14.1
					c-5.2,11.6-9.9,23.2-15.8,34.3c-2.5,4.9-5.2,9.9-8.9,14.3c-2.5,3-5.7,5.7-9.6,6.2c-7.4,1-11.3-5.2-11.8-11.8L305.8,202.5z"/>
			</defs>
			<clipPath id="g_8_">
				<use xlink:href="#g_3_"  style="overflow:visible;"/>
			</clipPath>
			<path class="st14" d="M379,78.5c0,0-29.8,70.1-30.5,71.4c-0.6,1.3-20.9,50.4-23.2,51.7c-2.2,1.3-5.7,10.5-10.8,11.7
				c-5.1,1.3-9.8,1-10.8-2.9c-1-3.8-1.9-11.4-1.9-11.4"/>
		</g>
		<g id="g_bottom">
			<defs>
				<path id="g_4_" d="M345,151.7c-5.7,3.7-11.1,7.2-16.3,11.6c-4.2,3.5-8.1,7.6-11.6,11.8c-4.9,6.4-9.1,14.1-10.9,21.9
					c-0.2,1.7-0.5,3.5-0.5,5.4c-0.2,2.7,0.2,6.7,2.7,8.4l3.7,5.9c-7.4,1-11.3-5.2-11.8-11.8c-0.5-4.7,0.5-9.4,2-13.8
					c3.7-11.3,11.3-21.5,20-29.6c5.7-5.4,12.3-9.9,19-14.1l7.4-4.9l9.4-6.7c9.1-6.9,17.5-14.6,24.9-23.2c2.2-2.7,6.4,0.5,4.4,3.2
					c-0.7,1.2-2,2.5-3.2,3.7l-2.7,3.2c-4.2,4.2-8.4,8.1-12.8,11.8c-3,2.5-5.9,4.7-8.9,6.9l-5.4,3.7L345,151.7z"/>
			</defs>
			<clipPath id="g_9_">
				<use xlink:href="#g_4_"  style="overflow:visible;"/>
			</clipPath>
			<path class="st15" d="M315.9,215.2c0,0-11.6,0.5-11.9-3.6c-0.3-4.1-3.3-18.1,1.9-23.9c5.2-5.9,10.9-18.9,18.2-24.3
				s24.4-16.8,27.1-18.9c2.7-2.1,21.8-15.1,27.1-22s11.3-13.5,11.3-14"/>
		</g>
	</g>
	<g id="l_3_">
		<g id="l_loop">
			<defs>
				<path id="l_1_" d="M410.6,78.2c7.6-10.1,15.3-20.2,22.4-30.3c5.4-7.9,11.1-15.8,15.3-24.4c1.2-2.7,3-7.6,0.7-10.4l2-5.4
					c5.7,2.7,5.2,10.9,3.2,15.8c-1.5,4.2-3.9,8.1-6.2,11.8c-5.7,9.4-12.1,18.3-18.7,27.1c-8.1,11.1-16.5,22-24.9,32.8
					c-0.7,0.7-1.2,1.5-1.7,2.5L392.6,110c-1.7,2-3.2,3.9-4.7,5.9c-1.5,1.7-4.4,2-5.2-0.7c-0.7-2.2,2.7-5.2,3.9-6.7l5.9-7.6
					c1.5-1.5,2.7-3.2,4.2-4.9L410.6,78.2z"/>
			</defs>
			<clipPath id="l_4_">
				<use xlink:href="#l_1_"  style="overflow:visible;"/>
			</clipPath>
			<path class="st16" d="M382.6,118.3l17.7-22.4l33.2-43.8l14.8-22.2c0,0,5.5-8.2,5.1-13.3c-0.4-5.1-2.3-7.4-4.7-7.6"/>
		</g>
		<g id="l_down">
			<defs>
				<path id="l_2_" d="M448.3,23.4c1.2-2.7,3-7.6,0.7-10.4c-0.7-1-2.2-0.7-3.2-0.5c-4.7,2-7.9,7.2-10.4,11.3
					c-3,4.4-5.4,9.4-7.6,14.3c-3.7,7.2-6.9,14.3-9.9,21.5l-7.4,18.5l-6.2,17c-0.7,0.7-1.2,1.5-1.7,2.5l-1,3l-2.2,5.9
					c-1.5,3.9-2.7,7.6-3.7,11.3c-1,3.2-1.7,6.4-2.2,9.6c-0.5,3.7-0.7,7.6,0.7,11.1c4.7,11.3,23.4-10.6,26.9-14.3l7.6-8.4
					c1.7-2,5.2-7.4,7.9-4.2c1.2,1.7,0.2,3.2-0.7,4.4c-1.5,1.7-3,3.2-4.2,4.9l-8.1,8.6c-4.2,4.7-8.6,9.1-13.6,12.8
					c-3.5,2.5-7.2,4.9-11.6,4.7c-7.6,0-10.6-7.2-10.9-13.8c-0.2-7.9,2.5-15.8,4.9-23.4l4.2-14.1c0.5-0.7,1.5-1.7,1.7-2.7
					c0.5-0.7,0.7-1.7,1.2-2.7c2.2-5.9,4.4-11.6,6.9-17.3c3.5-8.9,6.9-17.8,10.9-26.4c2.7-5.9,5.7-11.8,8.6-17.8
					c2.7-5.2,5.7-10.6,9.6-15c3.5-4.2,9.6-9.4,15.3-6.4c5.7,2.7,5.2,10.9,3.2,15.8H448.3z"/>
			</defs>
			<clipPath id="l_5_">
				<use xlink:href="#l_2_"  style="overflow:visible;"/>
			</clipPath>
			<path class="st17" d="M450.6,26.5c0,0,3.8-12.7,1.1-15.2c-2.7-2.5-9.3,0-9.3,0s-15,16.9-19,28.5c-4,11.6-17.6,45-17.6,45
				s-11.4,24.7-12.3,30.7c-0.8,5.9-4.9,15.9-2.3,20.9c2.5,5.1,3,10.8,8.9,8.7c5.9-2.1,15.4-10.4,17.3-12.3S432,116,432,116l4.7-6.6"
				/>
		</g>
	</g>
	<g id="e_3_">
		<g id="e_top">
			<defs>
				<path id="e_1_" d="M448.1,88.3c3.9-3.7,8.6-6.9,13.8-7.9c5.7-1,12.3,0.5,14.3,6.4c2.5,8.9-5.9,16.5-12.3,21
					c-5.7,3.5-11.6,5.9-17.8,7.9c-2,0.7-3.9,1.2-5.9,1.7l-3,0.7c-0.5,0-1,0.2-1.5,0.2l-6.3,0.5c0.6-2,1.2-4,2-5.9l6.7-1
					c10.1-2.5,21.5-6.4,28.6-14.1c2-2,3.7-4.4,4.2-7.2c0.5-4.4-3.7-5.4-7.4-4.9c-5.4,0.5-10.4,4.7-14.1,8.6L448.1,88.3z"/>
			</defs>
			<clipPath id="e_4_">
				<use xlink:href="#e_1_"  style="overflow:visible;"/>
			</clipPath>
			<path class="st18" d="M428,116c0,0,22.5-2.9,28.1-6.4c5.6-3.6,17.3-11.1,18.2-16.9c0.8-5.8-2-9.1-4.7-9.8
				c-2.6-0.7-8.9-0.5-13,2.1c-4.1,2.6-8,6.6-9.1,6.6"/>
		</g>
		<g id="e_bottom">
			<defs>
				<path id="e_2_" d="M463.6,85.8c-5.4,0.5-10.4,4.7-14.1,8.6c-4.7,5.2-8.4,11.1-11.3,17.5l-2.5,6.4c-0.2,0-0.2,1-0.5,1
					c-1.2,3.9-2,8.1-2,12.3c0.2,2.7,0.7,5.9,2.7,8.1c1.7,1.5,3.9,2.5,6.2,2.5c4.7,0.5,9.4-1.2,13.6-3.2c5.7-3.2,10.9-7.4,15.8-12.1
					c3-2.7,5.7-5.9,8.4-8.9l4.4-5.4c1-1.2,2.7-1.5,3.9-0.5c2.2,2,0,4.4-1.2,6.2l-5.9,6.7c-3.5,3.7-6.9,7.2-10.9,10.6
					c-7.9,6.7-18.2,13.6-29.1,12.3c-5.2-0.7-9.6-3.5-11.8-8.4c-2.5-5.7-1.7-12.3-0.5-18.3c3-12.3,9.9-24.4,19.2-33
					c3.9-3.7,8.6-6.9,13.8-7.9L463.6,85.8z"/>
			</defs>
			<clipPath id="e_5_">
				<use xlink:href="#e_2_"  style="overflow:visible;"/>
			</clipPath>
			<path class="st19" d="M466.2,82.2c0,0-13.3,3.7-19.5,10.8s-15.9,21.9-15.5,33.7c0.3,11.8,2.1,16.3,6.7,18.2
				c4.5,1.9,18.8-1.4,22.5-4.7s19-15.1,22.5-20.7c3.5-5.6,5.6-7,6.3-9.3"/>
		</g>
	</g>
</g>
</svg>
