<?xml version="1.0" encoding="utf-8"?>
<!-- Generator: Adobe Illustrator 24.0.0, SVG Export Plug-In . SVG Version: 6.00 Build 0)  -->
<svg version="1.1" xmlns="http://www.w3.org/2000/svg" xmlns:xlink="http://www.w3.org/1999/xlink" x="0px" y="0px"
	 viewBox="0 0 489.22 288" style="enable-background:new 0 0 489.22 288;" xml:space="preserve">
<style type="text/css">
	.st0{opacity:0.49;fill:none;stroke:#29ABE2;stroke-miterlimit:10;}
	.st1{opacity:0.49;}
	.st2{fill:none;stroke:#29ABE2;stroke-miterlimit:10;}
	.st3{fill:none;stroke:#29ABE2;stroke-miterlimit:10;stroke-dasharray:4.0173,4.0173;}
	.st4{fill:#666666;}
	.st5{clip-path:url(#SVGID_2_);fill:none;stroke:#148F77;stroke-width:25;stroke-miterlimit:10;}
	.st6{clip-path:url(#SVGID_4_);fill:none;stroke:#148F77;stroke-width:15;stroke-miterlimit:10;}
	.st7{clip-path:url(#SVGID_6_);fill:none;stroke:#148F77;stroke-width:5;stroke-miterlimit:10;}
	.st8{clip-path:url(#SVGID_8_);fill:none;stroke:#148F77;stroke-width:25;stroke-miterlimit:10;}
	.st9{clip-path:url(#SVGID_10_);fill:none;stroke:#148F77;stroke-width:2;stroke-miterlimit:10;}
	.st10{clip-path:url(#SVGID_12_);fill:none;stroke:#148F77;stroke-width:20;stroke-miterlimit:10;}
	.st11{clip-path:url(#SVGID_14_);fill:none;stroke:#148F77;stroke-width:3;stroke-miterlimit:10;}
	.st12{clip-path:url(#SVGID_16_);fill:none;stroke:#148F77;stroke-width:18;stroke-miterlimit:10;}
	.st13{clip-path:url(#SVGID_18_);fill:none;stroke:#148F77;stroke-width:18;stroke-miterlimit:10;}
	.st14{clip-path:url(#SVGID_20_);fill:none;stroke:#148F77;stroke-width:2;stroke-miterlimit:10;}
	.st15{clip-path:url(#SVGID_22_);fill:none;stroke:#148F77;stroke-width:11;stroke-miterlimit:10;}
	.st16{clip-path:url(#SVGID_24_);fill:none;stroke:#148F77;stroke-width:15;stroke-miterlimit:10;}
	.st17{clip-path:url(#SVGID_26_);fill:none;stroke:#148F77;stroke-width:3;stroke-miterlimit:10;}
	.st18{clip-path:url(#SVGID_28_);fill:none;stroke:#148F77;stroke-width:17;stroke-miterlimit:10;}
</style>
<g id="Layer_1">
	<g>
		<line class="st0" x1="-0.88" y1="172.14" x2="489.22" y2="172.14"/>
		<line class="st0" x1="-0.88" y1="22.69" x2="489.22" y2="22.69"/>
		<g class="st1">
			<g>
				<line class="st2" x1="-0.88" y1="95.22" x2="1.12" y2="95.22"/>
				<line class="st3" x1="5.14" y1="95.22" x2="485.21" y2="95.22"/>
				<line class="st2" x1="487.22" y1="95.22" x2="489.22" y2="95.22"/>
			</g>
		</g>
	</g>
	<path id="G_grey_1_" class="st4" d="M151.22,118.07c-17.58,17.58-34.29,29.67-50.11,38.68c-12.97,40.66-30.77,81.1-53.85,86.38
		c-9.89,2.42-31.21-2.64-28.35-25.71c4.18-30.99,30.33-34.29,67.47-53.19c5.49-18.46,10.11-36.92,14.29-52.75
		c-20.88,12.75-47.25,24.18-62.42,27.03c-9.23,1.76-37.36,7.69-38.24-20C-1.09,60.49,97.38-19.3,131.44,4.22
		c9.45,5.93-10.55,37.36-16.7,44.18l-0.44-0.66C125.95,33.67,137.38,9.06,131,4.88C112.32-7.65,9.02,70.16,15.17,126.2
		c1.54,12.31,6.59,14.51,20.66,11.87c11.65-1.76,41.32-13.19,65.06-27.69l6.59-27.25c4.62-18.9,30.33-14.73,24.4,0.66
		c-1.98,5.06-7.69,10.99-15.39,16.92c-3.74,15.61-8.79,34.95-15.17,55.17c15.61-9.01,32.31-21.1,49.89-38.68V118.07z M86.17,164.89
		c-36.26,18.24-62.42,22.2-66.6,51.65c-2.86,22.2,17.36,29.89,28.13,23.96C61.77,232.8,75.62,199.17,86.17,164.89z M116.94,99.39
		c4.4-3.52,8.35-7.47,11.87-11.65c9.45-11.65-3.52-22.64-7.69-5.71C119.57,86.64,118.47,92.58,116.94,99.39z"/>
	<path id="o_grey" class="st4" d="M231.88,110.38c-10.33,11.43-20.66,15.82-29.67,16.04c-6.59,23.08-28.57,49.45-51.43,46.59
		c-25.5-3.52-9.89-65.28,25.28-75.83c25.94-8.35,31.65,8.57,26.37,28.35c9.01,0,19.34-4.4,28.79-15.61L231.88,110.38z
		 M201.33,126.42c-16.92,0-26.81-14.29-18.24-23.96c-25.72,17.8-44.62,85.06-10.55,64.18C187.48,156.97,197.15,140.71,201.33,126.42
		z M185.06,101.15c-10.55,9.89,0,24.4,16.48,24.4c5.27-18.24,0.22-32.53-15.17-25.06L185.06,101.15z"/>
	<path id="o_grey_2_" class="st4" d="M305.06,110.38c-10.33,11.43-20.66,15.82-29.67,16.04c-6.59,23.08-28.57,49.45-51.43,46.59
		c-25.5-3.52-9.89-65.28,25.28-75.83c25.94-8.35,31.65,8.57,26.38,28.35c9.01,0,19.34-4.4,28.79-15.61L305.06,110.38z
		 M274.51,126.42c-16.93,0-26.82-14.29-18.24-23.96c-25.72,17.8-44.62,85.06-10.55,64.18C260.66,156.97,270.33,140.71,274.51,126.42
		z M258.25,101.15c-10.55,9.89,0,24.4,16.48,24.4c5.28-18.24,0.22-32.53-15.17-25.06L258.25,101.15z"/>
	<path id="g_grey_1_" class="st4" d="M370.11,148.62c-12.09,6.15-22.64,12.31-32.09,18.68c-19.34,51.21-30.11,100.44-43.52,113.19
		c-15.38,14.73-34.73,6.16-35.39-11.65c-1.1-20.66,18.24-56.27,61.1-89.67c3.3-10.55,7.03-21.54,11.43-32.75
		c-18.02,14.07-30.99,16.26-35.16,14.95c-6.37-1.1-14.95-5.93-13.85-18.02c2.42-19.78,31.43-48.57,55.61-47.91
		c5.27,0.66,11.43,3.08,13.19,7.25c3.74-7.25,7.69-14.29,12.31-21.98c3.52-1.76,14.07,2.42,15.17,5.93
		c-17.58,24.4-30.11,52.31-40.66,79.78c9.89-6.81,20.22-12.75,32.31-18.68L370.11,148.62z M320,179.83
		c-40.88,31.65-55.17,63.3-58.68,76.27c-5.27,21.32,5.72,30.55,14.73,30.55c6.16-0.66,10.33-7.91,12.75-13.41
		C302.85,242.69,309.45,212.8,320,179.83z M350.99,103.35c-1.1-3.52-7.25-6.81-9.89-6.81c-23.96-0.88-50.55,60.66-44.4,64.18
		c4.18,1.76,20.44-2.64,35.39-15.83C337.36,131.7,343.29,118.29,350.99,103.35z"/>
	<path id="l_grey_1_" class="st4" d="M422.63,143.57l0.44,0.44c-10.99,33.19-39.56,43.74-50.11,16.7
		c-16.71-45.06,42.64-126.82,60.66-136.27c7.91-3.52,16.26-0.88,16.92,6.37c0.88,15.82-39.78,69.23-61.98,87.04
		c-7.69,25.72-5.93,46.16,8.13,51.43C407.24,173.24,418.45,157.41,422.63,143.57z M388.78,116.75
		c22.42-18.02,61.98-70.99,61.1-85.94c-1.1-8.35-7.69-2.86-12.53,2.64C413.62,60.93,396.69,91.04,388.78,116.75z"/>
	<path id="e_grey" class="st4" d="M442.63,173.02c4.83-0.66,32.31-11.65,44.62-36.48h0.44c-10.33,25.72-64.18,57.8-66.81,22.64
		c-1.76-21.1,16.49-57.58,37.36-62.86c9.89-2.42,26.82-3.74,26.15,5.27c-0.66,7.69-25.27,28.13-46.59,40
		c-3.52,12.97-4.18,24.4-0.66,29.01C438.23,172.14,440.21,173.68,442.63,173.02z M471.42,94.99c-14.07,1.1-27.47,24.4-33.41,45.5
		c20-11.21,46.15-32.53,45.5-40.44C482.85,95.87,475.81,94.99,471.42,94.99z"/>
</g>
<g id="Layer_2">
	<g id="G">
		<g id="G_top">
			<defs>
				<path id="SVGID_1_" d="M107.48,83.13c4.62-18.9,30.33-14.73,24.4,0.66c-1.98,5.06-7.69,10.99-15.39,16.92l-15.82,10.77
					c-20.88,12.75-47.25,24.18-62.42,27.03c-9.23,1.76-37.36,7.69-38.24-20C-1.09,60.49,97.38-19.3,131.44,4.22
					c9.45,5.93-10.55,37.36-16.7,44.18l-0.44-0.66C125.95,33.67,137.38,9.06,131,4.88C112.32-7.65,9.02,70.16,15.17,126.2
					c1.54,12.31,6.59,14.51,20.66,11.87c11.65-1.76,41.32-13.19,65.06-27.69l16.04-10.99c4.4-3.52,8.35-7.47,11.87-11.65
					c9.45-11.65-3.52-22.64-7.69-5.71"/>
			</defs>
			<clipPath id="SVGID_2_">
				<use xlink:href="#SVGID_1_"  style="overflow:visible;"/>
			</clipPath>
			<path class="st5" d="M109.37,54.45c0,0,31.2-35.71,21.63-49.57S66.97,26.54,66.97,26.54S30.69,53.78,18.65,82.03
				S4.57,119.11,7.88,128.56s5.71,9.35,22.2,11.71s97.03-41.11,101.8-56.49c4.77-15.38-10.77-9.67-10.77-9.67s-5.33-1.34-7.23,11.34
				"/>
		</g>
		<g id="G_middle">
			<defs>
				<path id="SVGID_3_" d="M86.39,164.23c5.49-18.46,10.11-36.92,14.29-52.75l0.22-1.1l6.59-27.25l13.63-1.1
					c-1.54,4.62-2.64,10.55-4.18,17.36l-0.44,1.32c-3.74,15.61-8.79,34.95-15.17,55.17l-0.22,0.88
					c-12.97,40.66-30.77,81.1-53.85,86.38l0.44-2.64c14.07-7.69,27.91-41.32,38.46-75.61"/>
			</defs>
			<clipPath id="SVGID_4_">
				<use xlink:href="#SVGID_3_"  style="overflow:visible;"/>
			</clipPath>
			<path class="st6" d="M113.98,80.1c0,0-26.96,115.14-36.48,126.87c-9.52,11.74-12.79,29.71-32.46,35.21"/>
		</g>
		<g id="G_bottom">
			<defs>
				<path id="SVGID_5_" d="M86.17,164.89c-36.26,18.24-62.42,22.2-66.6,51.65c-2.86,22.2,17.36,29.89,28.13,23.96l-0.44,2.64
					c-9.89,2.42-31.21-2.64-28.35-25.71c4.18-30.99,30.33-34.29,67.47-53.19l14.95-8.35c15.61-9.01,32.31-21.1,49.89-38.68v0.88
					c-17.58,17.58-34.29,29.67-50.11,38.68L86.17,164.89z"/>
			</defs>
			<clipPath id="SVGID_6_">
				<use xlink:href="#SVGID_5_"  style="overflow:visible;"/>
			</clipPath>
			<path class="st7" d="M52.03,239.01c0,0-10.52,10.97-27.88-2.55s7.15-51.16,28.3-56.03s95.21-49.66,98.78-62.36"/>
		</g>
	</g>
	<g id="o1">
		<g id="o_main1">
			<defs>
				<path id="SVGID_7_" d="M202.21,126.42c-6.59,23.08-28.57,49.45-51.43,46.59c-25.5-3.52-9.89-65.28,25.28-75.83
					c25.94-8.35,31.65,8.57,26.37,28.35 M201.55,125.55c5.27-18.24,0.22-32.53-15.17-25.06l-1.32,0.66l-1.98,1.32
					c-25.72,17.8-44.62,85.06-10.55,64.18c14.95-9.67,24.62-25.94,28.79-40.22L201.55,125.55z"/>
			</defs>
			<clipPath id="SVGID_8_">
				<use xlink:href="#SVGID_7_"  style="overflow:visible;"/>
			</clipPath>
			<path class="st8" d="M198.57,96.7c0,0,0.85,0-7.61,0s-27.91,14.17-34.89,24.95c-6.98,10.78-14.38,31.08-10.57,37.85
				c3.81,6.77,4.86,10.78,12.48,12.05s18.3-6.62,18.3-6.62s15.53-12.4,20.74-25.46c5.21-13.05,7.4-23.09,6.98-30.08
				c-0.42-6.99-4.61-11.62-9.43-10.94"/>
		</g>
		<g id="o_swash1">
			<defs>
				<path id="SVGID_9_" d="M202.43,125.55c9.01,0,19.34-4.4,28.79-15.61l0.66,0.44c-10.33,11.43-20.66,15.82-29.67,16.04h-0.88
					c-16.92,0-26.81-14.29-18.24-23.96l1.98-1.32c-10.55,9.89,0,24.4,16.48,24.4H202.43z"/>
			</defs>
			<clipPath id="SVGID_10_">
				<use xlink:href="#SVGID_9_"  style="overflow:visible;"/>
			</clipPath>
			<path class="st9" d="M185.46,100.08c0,0-5.29,4.42-5.35,7.88c-0.05,3.46,2.36,17.02,17.6,17.76c15.24,0.74,22.47-5.68,22.37-5.62
				s11.45-8.73,12.32-11.4"/>
		</g>
	</g>
	<g id="o2">
		<g id="o_main2">
			<defs>
				<path id="SVGID_11_" d="M275.18,126.42c-6.59,23.08-28.57,49.45-51.43,46.59c-25.5-3.52-9.89-65.28,25.28-75.83
					c25.94-8.35,31.65,8.57,26.37,28.35 M274.52,125.55c5.27-18.24,0.22-32.53-15.17-25.06l-1.32,0.66l-1.98,1.32
					c-25.72,17.8-44.62,85.06-10.55,64.18c14.95-9.67,24.62-25.94,28.79-40.22L274.52,125.55z"/>
			</defs>
			<clipPath id="SVGID_12_">
				<use xlink:href="#SVGID_11_"  style="overflow:visible;"/>
			</clipPath>
			<path class="st10" d="M267.85,96.14c0,0-30.8,6.48-38.83,24.45s-12.46,34.18-10.36,42.93c2.1,8.75,11.63,8.04,12.48,8.04
				s8.7,0.67,19.89-8.02c11.19-8.69,20.99-27.81,22.31-31.61c1.33-3.8,4.03-14.08,3.85-21.91s-5.31-12.12-9.69-11.56"/>
		</g>
		<g id="o_swash2">
			<defs>
				<path id="SVGID_13_" d="M275.61,125.55c9.01,0,19.34-4.4,28.79-15.61l0.66,0.44c-10.33,11.43-20.66,15.82-29.67,16.04h-0.88
					c-16.92,0-26.81-14.29-18.24-23.96l1.98-1.32c-10.55,9.89,0,24.4,16.48,24.4H275.61z"/>
			</defs>
			<clipPath id="SVGID_14_">
				<use xlink:href="#SVGID_13_"  style="overflow:visible;"/>
			</clipPath>
			<path class="st11" d="M259.04,99.45c0,0-5.56,5.33-5.7,8.73c-0.14,3.41,1.2,13.54,13.76,17.26c12.56,3.72,22.6-3.09,25.46-5.02
				c2.86-1.93,10.27-6.65,11.85-10.48"/>
		</g>
	</g>
	<g id="g">
		<g id="g_top">
			<defs>
				<path id="SVGID_15_" d="M331.64,146.43c-18.02,14.07-30.99,16.26-35.16,14.95c-6.37-1.1-14.95-5.93-13.85-18.02
					c2.42-19.78,31.43-48.57,55.61-47.91c5.27,0.66,11.43,3.08,13.19,7.25l-0.44,0.66c-1.1-3.52-7.25-6.81-9.89-6.81
					c-23.96-0.88-50.55,60.66-44.4,64.18c4.18,1.76,20.44-2.64,35.39-15.83L331.64,146.43z"/>
			</defs>
			<clipPath id="SVGID_16_">
				<use xlink:href="#SVGID_15_"  style="overflow:visible;"/>
			</clipPath>
			<path class="st12" d="M352.82,105.16c0,0-3.32-7-7.52-7.81s-9.77-3.13-19.44,2.58c-9.67,5.71-32.04,28.7-34.1,40.76
				s1.27,16.97,1.9,17.6s6.18,8.09,19.36-0.3s21.59-11.49,22.04-13.02"/>
		</g>
		<g id="g_middle">
			<defs>
				<path id="SVGID_17_" d="M320.2,179.17c3.3-10.55,7.03-21.54,11.43-32.75l0.44-1.54c5.27-13.19,11.21-26.59,18.9-41.54l0.44-0.66
					c3.74-7.25,7.69-14.29,12.31-21.98c3.52-1.76,14.07,2.42,15.17,5.93c-17.58,24.4-30.11,52.31-40.66,79.78L338,167.3
					c-19.34,51.21-30.11,100.44-43.52,113.19c-15.38,14.73-34.73,6.16-35.39-11.65l2.2-12.75c-5.27,21.32,5.72,30.55,14.73,30.55
					c6.16-0.66,10.33-7.91,12.75-13.41c14.07-30.55,20.66-60.44,31.21-93.41L320.2,179.17z"/>
			</defs>
			<clipPath id="SVGID_18_">
				<use xlink:href="#SVGID_17_"  style="overflow:visible;"/>
			</clipPath>
			<path class="st13" d="M372.64,80.29c0,0-46.15,86.06-57.99,136.73c-11.84,50.66-33.25,70.63-33.25,70.63s-11.78,1.51-18.65-7.38
				c-6.88-8.9-1.46-24.16-1.46-24.16"/>
		</g>
		<g id="g_end">
			<defs>
				<path id="SVGID_19_" d="M259.11,268.85c-1.1-20.66,18.24-56.27,61.1-89.67l18.02-12.75c9.89-6.81,20.22-12.75,32.31-18.68
					l-0.44,0.88c-12.09,6.15-22.64,12.31-32.09,18.68L320,179.83c-40.88,31.65-55.17,63.3-58.68,76.27L259.11,268.85z"/>
			</defs>
			<clipPath id="SVGID_20_">
				<use xlink:href="#SVGID_19_"  style="overflow:visible;"/>
			</clipPath>
			<path class="st14" d="M259.07,272.31c0,0,0.28-18.39,10.7-37.9s28.92-35.89,28.92-35.89s28.52-25.81,39.55-32.09
				c11.03-6.29,31.71-19.23,35.2-18.68"/>
		</g>
	</g>
	<g id="l">
		<g id="l_loop">
			<defs>
				<path id="SVGID_21_" d="M388.78,116.75c22.42-18.02,61.98-70.99,61.1-85.94c-1.1-8.35-7.69-2.86-12.53,2.64l-3.73-9.01
					c7.91-3.52,16.26-0.88,16.92,6.37c0.88,15.82-39.78,69.23-61.98,87.04L388.78,116.75z"/>
			</defs>
			<clipPath id="SVGID_22_">
				<use xlink:href="#SVGID_21_"  style="overflow:visible;"/>
			</clipPath>
			<path class="st15" d="M386.55,117.85c0,0,14.32-9.69,26.73-25.27s32.71-42.11,34.67-53.23s3.67-16.75-14.25-9.67"/>
		</g>
		<g id="l_down">
			<defs>
				<path id="SVGID_23_" d="M388.56,117.85c-7.69,25.72-5.93,46.16,8.13,51.43c10.55,3.96,21.76-11.87,25.94-25.72l0.44,0.44
					c-10.99,33.19-39.56,43.74-50.11,16.7c-16.71-45.06,42.64-126.82,60.66-136.27l3.73,9.01c-23.74,27.47-40.66,57.58-48.57,83.3"
					/>
			</defs>
			<clipPath id="SVGID_24_">
				<use xlink:href="#SVGID_23_"  style="overflow:visible;"/>
			</clipPath>
			<path class="st16" d="M437.35,24.44c0,0-29.22,37.25-40.34,56.11c-11.74,19.91-25.37,58.17-17.44,76.57
				c7.99,18.53,3.49,14.98,17.44,16.37C410.97,174.88,422.6,141,422.6,141"/>
		</g>
	</g>
	<g id="e">
		<g id="e_loop">
			<defs>
				<path id="SVGID_25_" d="M458.23,96.31c9.89-2.42,26.82-3.74,26.15,5.27c-0.66,7.69-25.27,28.13-46.59,40l0.22-1.1
					c20-11.21,46.15-32.53,45.5-40.44c-0.66-4.18-7.69-5.06-12.09-5.06L458.23,96.31z"/>
			</defs>
			<clipPath id="SVGID_26_">
				<use xlink:href="#SVGID_25_"  style="overflow:visible;"/>
			</clipPath>
			<path class="st17" d="M436.03,141.59c0,0,37.4-21.65,45.45-34.22s-7.81-12.81-7.81-12.81s-16.71,1.08-17.76,2.14"/>
		</g>
		<g id="e_down">
			<defs>
				<path id="SVGID_27_" d="M471.41,94.99c-14.07,1.1-27.47,24.4-33.41,45.5l-0.22,1.1c-3.52,12.97-4.18,24.4-0.66,29.01
					c1.1,1.54,3.08,3.08,5.5,2.42c4.83-0.66,32.31-11.65,44.62-36.48h0.44c-10.33,25.72-64.18,57.8-66.81,22.64
					c-1.76-21.1,16.49-57.58,37.36-62.86L471.41,94.99z"/>
			</defs>
			<clipPath id="SVGID_28_">
				<use xlink:href="#SVGID_27_"  style="overflow:visible;"/>
			</clipPath>
			<path class="st18" d="M470.28,92.68c0,0-34.16,22.47-39.5,50.02c-5.12,26.42,2.85,27.42,2.85,27.42s14.13,4.23,28.56-5.52
				c14.43-9.75,24.88-24.19,25.05-28.07"/>
		</g>
	</g>
</g>
</svg>
