<?xml version="1.0" encoding="utf-8"?>
<!-- Generator: Adobe Illustrator 24.0.1, SVG Export Plug-In . SVG Version: 6.00 Build 0)  -->
<svg version="1.1" id="Layer_1" xmlns="http://www.w3.org/2000/svg" xmlns:xlink="http://www.w3.org/1999/xlink" x="0px" y="0px"
	 viewBox="0 0 30.6 30.7" style="enable-background:new 0 0 30.6 30.7;" xml:space="preserve">
<style type="text/css">
	.st0{fill:#29ABE2;stroke:#29ABE2;stroke-width:0.25;stroke-miterlimit:10;}
</style>
<path class="st0" d="M15.3,30.3c-8.3,0-15-6.7-15-15s6.7-15,15-15s15,6.7,15,15S23.6,30.3,15.3,30.3z M15.3,1.3c-7.7,0-14,6.3-14,14
	s6.3,14,14,14s14-6.3,14-14S23,1.3,15.3,1.3z"/>
<path class="st0" d="M15.3,9.3c-0.8,0-1.5-0.7-1.5-1.5s0.7-1.5,1.5-1.5s1.5,0.7,1.5,1.5S16.1,9.3,15.3,9.3z M15.3,7.3
	c-0.3,0-0.5,0.2-0.5,0.5s0.2,0.5,0.5,0.5c0.3,0,0.5-0.2,0.5-0.5S15.6,7.3,15.3,7.3z"/>
<path class="st0" d="M16.8,24.3c-0.9,0-1.6-0.3-2.1-0.8c-0.4-0.4-0.5-1-0.4-1.6l1-7.3c0-0.3,0-0.6-0.2-0.8c-0.2-0.3-0.7-0.5-1.3-0.5
	c-0.3,0-0.5-0.2-0.5-0.5s0.2-0.5,0.5-0.5c0.9,0,1.6,0.3,2.1,0.8c0.4,0.4,0.5,1,0.4,1.6l-1,7.3c0,0.3,0,0.6,0.2,0.8
	c0.2,0.3,0.7,0.5,1.3,0.5c0.3,0,0.5,0.2,0.5,0.5S17.1,24.3,16.8,24.3z"/>
</svg>
