<?xml version="1.0" encoding="utf-8"?>
<!-- Generator: Adobe Illustrator 24.0.0, SVG Export Plug-In . SVG Version: 6.00 Build 0)  -->
<svg version="1.1" id="Layer_1" xmlns="http://www.w3.org/2000/svg" xmlns:xlink="http://www.w3.org/1999/xlink" x="0px" y="0px"
	 viewBox="0 0 30 30" style="enable-background:new 0 0 30 30;" xml:space="preserve">
<style type="text/css">
	.st0{fill:#29ABE2;}
</style>
<g transform="translate(-210 -260)">
	<g>
		<path class="st0" d="M222.42,274.02c0.01-0.01,0.02-0.03,0.03-0.04c0.24-0.33,0.46-0.62,0.68-0.93c-2.3-3.11-3.87-4.97-5.05-4.97
			H210v1.15h8.08C218.79,269.23,220.76,271.77,222.42,274.02z"/>
		<path class="st0" d="M234.14,277.47l3.54,3.3h-8.07c-0.71,0-2.68-2.54-4.34-4.79c-0.01,0.01-0.02,0.03-0.03,0.04
			c-0.24,0.33-0.46,0.63-0.68,0.94c2.3,3.11,3.87,4.97,5.05,4.97h8.07l-3.55,3.3l0.79,0.84l5.07-4.72l-5.07-4.72L234.14,277.47z"/>
		<path class="st0" d="M234.14,264.78l3.54,3.3h-8.07c-1.38,0-3.27,2.5-6.24,6.58c-1.77,2.43-4.44,6.11-5.3,6.11H210v1.15h8.08
			c1.38,0,3.27-2.5,6.24-6.58c1.77-2.43,4.44-6.11,5.3-6.11h8.07l-3.55,3.3l0.79,0.84l5.07-4.72l-5.07-4.72L234.14,264.78z"/>
	</g>
</g>
</svg>
